%TF.GenerationSoftware,KiCad,Pcbnew,5.99.0-1.20211029git63d4d84.fc34*%
%TF.CreationDate,2021-10-30T18:32:49+11:00*%
%TF.ProjectId,peppermint,70657070-6572-46d6-996e-742e6b696361,rev?*%
%TF.SameCoordinates,Original*%
%TF.FileFunction,Legend,Top*%
%TF.FilePolarity,Positive*%
%FSLAX46Y46*%
G04 Gerber Fmt 4.6, Leading zero omitted, Abs format (unit mm)*
G04 Created by KiCad (PCBNEW 5.99.0-1.20211029git63d4d84.fc34) date 2021-10-30 18:32:49*
%MOMM*%
%LPD*%
G01*
G04 APERTURE LIST*
%ADD10C,0.250000*%
%ADD11C,0.150000*%
%ADD12C,0.381000*%
%ADD13C,4.000000*%
%ADD14R,1.752600X1.752600*%
%ADD15C,1.752600*%
G04 APERTURE END LIST*
D10*
X57071428Y-90961428D02*
X57071428Y-92961428D01*
X57071428Y-91056666D02*
X57166666Y-90961428D01*
X57357142Y-90961428D01*
X57452380Y-91056666D01*
X57500000Y-91151904D01*
X57547619Y-91342380D01*
X57547619Y-91913809D01*
X57500000Y-92104285D01*
X57452380Y-92199523D01*
X57357142Y-92294761D01*
X57166666Y-92294761D01*
X57071428Y-92199523D01*
X58357142Y-92199523D02*
X58261904Y-92294761D01*
X58071428Y-92294761D01*
X57976190Y-92199523D01*
X57928571Y-92009047D01*
X57928571Y-91247142D01*
X57976190Y-91056666D01*
X58071428Y-90961428D01*
X58261904Y-90961428D01*
X58357142Y-91056666D01*
X58404761Y-91247142D01*
X58404761Y-91437619D01*
X57928571Y-91628095D01*
X58833333Y-90961428D02*
X58833333Y-92961428D01*
X58833333Y-91056666D02*
X58928571Y-90961428D01*
X59119047Y-90961428D01*
X59214285Y-91056666D01*
X59261904Y-91151904D01*
X59309523Y-91342380D01*
X59309523Y-91913809D01*
X59261904Y-92104285D01*
X59214285Y-92199523D01*
X59119047Y-92294761D01*
X58928571Y-92294761D01*
X58833333Y-92199523D01*
X59738095Y-90961428D02*
X59738095Y-92961428D01*
X59738095Y-91056666D02*
X59833333Y-90961428D01*
X60023809Y-90961428D01*
X60119047Y-91056666D01*
X60166666Y-91151904D01*
X60214285Y-91342380D01*
X60214285Y-91913809D01*
X60166666Y-92104285D01*
X60119047Y-92199523D01*
X60023809Y-92294761D01*
X59833333Y-92294761D01*
X59738095Y-92199523D01*
X61023809Y-92199523D02*
X60928571Y-92294761D01*
X60738095Y-92294761D01*
X60642857Y-92199523D01*
X60595238Y-92009047D01*
X60595238Y-91247142D01*
X60642857Y-91056666D01*
X60738095Y-90961428D01*
X60928571Y-90961428D01*
X61023809Y-91056666D01*
X61071428Y-91247142D01*
X61071428Y-91437619D01*
X60595238Y-91628095D01*
X61500000Y-92294761D02*
X61500000Y-90961428D01*
X61500000Y-91342380D02*
X61547619Y-91151904D01*
X61595238Y-91056666D01*
X61690476Y-90961428D01*
X61785714Y-90961428D01*
X62119047Y-92294761D02*
X62119047Y-90961428D01*
X62119047Y-91151904D02*
X62166666Y-91056666D01*
X62261904Y-90961428D01*
X62404761Y-90961428D01*
X62500000Y-91056666D01*
X62547619Y-91247142D01*
X62547619Y-92294761D01*
X62547619Y-91247142D02*
X62595238Y-91056666D01*
X62690476Y-90961428D01*
X62833333Y-90961428D01*
X62928571Y-91056666D01*
X62976190Y-91247142D01*
X62976190Y-92294761D01*
X63452380Y-92294761D02*
X63452380Y-90961428D01*
X63452380Y-90294761D02*
X63404761Y-90390000D01*
X63452380Y-90485238D01*
X63500000Y-90390000D01*
X63452380Y-90294761D01*
X63452380Y-90485238D01*
X63928571Y-90961428D02*
X63928571Y-92294761D01*
X63928571Y-91151904D02*
X63976190Y-91056666D01*
X64071428Y-90961428D01*
X64214285Y-90961428D01*
X64309523Y-91056666D01*
X64357142Y-91247142D01*
X64357142Y-92294761D01*
X64690476Y-90961428D02*
X65071428Y-90961428D01*
X64833333Y-90294761D02*
X64833333Y-92009047D01*
X64880952Y-92199523D01*
X64976190Y-92294761D01*
X65071428Y-92294761D01*
X57476190Y-95514761D02*
X57476190Y-93514761D01*
X57476190Y-94276666D02*
X57571428Y-94181428D01*
X57761904Y-94181428D01*
X57857142Y-94276666D01*
X57904761Y-94371904D01*
X57952380Y-94562380D01*
X57952380Y-95133809D01*
X57904761Y-95324285D01*
X57857142Y-95419523D01*
X57761904Y-95514761D01*
X57571428Y-95514761D01*
X57476190Y-95419523D01*
X58285714Y-94181428D02*
X58523809Y-95514761D01*
X58761904Y-94181428D02*
X58523809Y-95514761D01*
X58428571Y-95990952D01*
X58380952Y-96086190D01*
X58285714Y-96181428D01*
X59904761Y-95514761D02*
X59904761Y-94181428D01*
X59904761Y-94562380D02*
X59952380Y-94371904D01*
X60000000Y-94276666D01*
X60095238Y-94181428D01*
X60190476Y-94181428D01*
X60952380Y-94181428D02*
X60952380Y-96181428D01*
X60952380Y-95419523D02*
X60857142Y-95514761D01*
X60666666Y-95514761D01*
X60571428Y-95419523D01*
X60523809Y-95324285D01*
X60476190Y-95133809D01*
X60476190Y-94562380D01*
X60523809Y-94371904D01*
X60571428Y-94276666D01*
X60666666Y-94181428D01*
X60857142Y-94181428D01*
X60952380Y-94276666D01*
X61857142Y-95419523D02*
X61761904Y-95514761D01*
X61571428Y-95514761D01*
X61476190Y-95419523D01*
X61428571Y-95324285D01*
X61380952Y-95133809D01*
X61380952Y-94562380D01*
X61428571Y-94371904D01*
X61476190Y-94276666D01*
X61571428Y-94181428D01*
X61761904Y-94181428D01*
X61857142Y-94276666D01*
X62428571Y-95514761D02*
X62333333Y-95419523D01*
X62285714Y-95324285D01*
X62238095Y-95133809D01*
X62238095Y-94562380D01*
X62285714Y-94371904D01*
X62333333Y-94276666D01*
X62428571Y-94181428D01*
X62571428Y-94181428D01*
X62666666Y-94276666D01*
X62714285Y-94371904D01*
X62761904Y-94562380D01*
X62761904Y-95133809D01*
X62714285Y-95324285D01*
X62666666Y-95419523D01*
X62571428Y-95514761D01*
X62428571Y-95514761D01*
X63333333Y-95514761D02*
X63238095Y-95419523D01*
X63190476Y-95324285D01*
X63142857Y-95133809D01*
X63142857Y-94562380D01*
X63190476Y-94371904D01*
X63238095Y-94276666D01*
X63333333Y-94181428D01*
X63476190Y-94181428D01*
X63571428Y-94276666D01*
X63619047Y-94371904D01*
X63666666Y-94562380D01*
X63666666Y-95133809D01*
X63619047Y-95324285D01*
X63571428Y-95419523D01*
X63476190Y-95514761D01*
X63333333Y-95514761D01*
X64095238Y-94181428D02*
X64095238Y-95514761D01*
X64095238Y-94371904D02*
X64142857Y-94276666D01*
X64238095Y-94181428D01*
X64380952Y-94181428D01*
X64476190Y-94276666D01*
X64523809Y-94467142D01*
X64523809Y-95514761D01*
D11*
%TO.C,MX20*%
X115713095Y-119689880D02*
X115713095Y-118689880D01*
X116046428Y-119404166D01*
X116379761Y-118689880D01*
X116379761Y-119689880D01*
X116760714Y-118689880D02*
X117427380Y-119689880D01*
X117427380Y-118689880D02*
X116760714Y-119689880D01*
X117760714Y-118785119D02*
X117808333Y-118737500D01*
X117903571Y-118689880D01*
X118141666Y-118689880D01*
X118236904Y-118737500D01*
X118284523Y-118785119D01*
X118332142Y-118880357D01*
X118332142Y-118975595D01*
X118284523Y-119118452D01*
X117713095Y-119689880D01*
X118332142Y-119689880D01*
X118951190Y-118689880D02*
X119046428Y-118689880D01*
X119141666Y-118737500D01*
X119189285Y-118785119D01*
X119236904Y-118880357D01*
X119284523Y-119070833D01*
X119284523Y-119308928D01*
X119236904Y-119499404D01*
X119189285Y-119594642D01*
X119141666Y-119642261D01*
X119046428Y-119689880D01*
X118951190Y-119689880D01*
X118855952Y-119642261D01*
X118808333Y-119594642D01*
X118760714Y-119499404D01*
X118713095Y-119308928D01*
X118713095Y-119070833D01*
X118760714Y-118880357D01*
X118808333Y-118785119D01*
X118855952Y-118737500D01*
X118951190Y-118689880D01*
%TO.C,MX16*%
X96663095Y-119689880D02*
X96663095Y-118689880D01*
X96996428Y-119404166D01*
X97329761Y-118689880D01*
X97329761Y-119689880D01*
X97710714Y-118689880D02*
X98377380Y-119689880D01*
X98377380Y-118689880D02*
X97710714Y-119689880D01*
X99282142Y-119689880D02*
X98710714Y-119689880D01*
X98996428Y-119689880D02*
X98996428Y-118689880D01*
X98901190Y-118832738D01*
X98805952Y-118927976D01*
X98710714Y-118975595D01*
X100139285Y-118689880D02*
X99948809Y-118689880D01*
X99853571Y-118737500D01*
X99805952Y-118785119D01*
X99710714Y-118927976D01*
X99663095Y-119118452D01*
X99663095Y-119499404D01*
X99710714Y-119594642D01*
X99758333Y-119642261D01*
X99853571Y-119689880D01*
X100044047Y-119689880D01*
X100139285Y-119642261D01*
X100186904Y-119594642D01*
X100234523Y-119499404D01*
X100234523Y-119261309D01*
X100186904Y-119166071D01*
X100139285Y-119118452D01*
X100044047Y-119070833D01*
X99853571Y-119070833D01*
X99758333Y-119118452D01*
X99710714Y-119166071D01*
X99663095Y-119261309D01*
%TO.C,MX15*%
X96663095Y-100639880D02*
X96663095Y-99639880D01*
X96996428Y-100354166D01*
X97329761Y-99639880D01*
X97329761Y-100639880D01*
X97710714Y-99639880D02*
X98377380Y-100639880D01*
X98377380Y-99639880D02*
X97710714Y-100639880D01*
X99282142Y-100639880D02*
X98710714Y-100639880D01*
X98996428Y-100639880D02*
X98996428Y-99639880D01*
X98901190Y-99782738D01*
X98805952Y-99877976D01*
X98710714Y-99925595D01*
X100186904Y-99639880D02*
X99710714Y-99639880D01*
X99663095Y-100116071D01*
X99710714Y-100068452D01*
X99805952Y-100020833D01*
X100044047Y-100020833D01*
X100139285Y-100068452D01*
X100186904Y-100116071D01*
X100234523Y-100211309D01*
X100234523Y-100449404D01*
X100186904Y-100544642D01*
X100139285Y-100592261D01*
X100044047Y-100639880D01*
X99805952Y-100639880D01*
X99710714Y-100592261D01*
X99663095Y-100544642D01*
%TO.C,MX19*%
X115713095Y-100639880D02*
X115713095Y-99639880D01*
X116046428Y-100354166D01*
X116379761Y-99639880D01*
X116379761Y-100639880D01*
X116760714Y-99639880D02*
X117427380Y-100639880D01*
X117427380Y-99639880D02*
X116760714Y-100639880D01*
X118332142Y-100639880D02*
X117760714Y-100639880D01*
X118046428Y-100639880D02*
X118046428Y-99639880D01*
X117951190Y-99782738D01*
X117855952Y-99877976D01*
X117760714Y-99925595D01*
X118808333Y-100639880D02*
X118998809Y-100639880D01*
X119094047Y-100592261D01*
X119141666Y-100544642D01*
X119236904Y-100401785D01*
X119284523Y-100211309D01*
X119284523Y-99830357D01*
X119236904Y-99735119D01*
X119189285Y-99687500D01*
X119094047Y-99639880D01*
X118903571Y-99639880D01*
X118808333Y-99687500D01*
X118760714Y-99735119D01*
X118713095Y-99830357D01*
X118713095Y-100068452D01*
X118760714Y-100163690D01*
X118808333Y-100211309D01*
X118903571Y-100258928D01*
X119094047Y-100258928D01*
X119189285Y-100211309D01*
X119236904Y-100163690D01*
X119284523Y-100068452D01*
%TO.C,MX2*%
X39989285Y-81589880D02*
X39989285Y-80589880D01*
X40322619Y-81304166D01*
X40655952Y-80589880D01*
X40655952Y-81589880D01*
X41036904Y-80589880D02*
X41703571Y-81589880D01*
X41703571Y-80589880D02*
X41036904Y-81589880D01*
X42036904Y-80685119D02*
X42084523Y-80637500D01*
X42179761Y-80589880D01*
X42417857Y-80589880D01*
X42513095Y-80637500D01*
X42560714Y-80685119D01*
X42608333Y-80780357D01*
X42608333Y-80875595D01*
X42560714Y-81018452D01*
X41989285Y-81589880D01*
X42608333Y-81589880D01*
%TO.C,MX11*%
X77613095Y-100639880D02*
X77613095Y-99639880D01*
X77946428Y-100354166D01*
X78279761Y-99639880D01*
X78279761Y-100639880D01*
X78660714Y-99639880D02*
X79327380Y-100639880D01*
X79327380Y-99639880D02*
X78660714Y-100639880D01*
X80232142Y-100639880D02*
X79660714Y-100639880D01*
X79946428Y-100639880D02*
X79946428Y-99639880D01*
X79851190Y-99782738D01*
X79755952Y-99877976D01*
X79660714Y-99925595D01*
X81184523Y-100639880D02*
X80613095Y-100639880D01*
X80898809Y-100639880D02*
X80898809Y-99639880D01*
X80803571Y-99782738D01*
X80708333Y-99877976D01*
X80613095Y-99925595D01*
%TO.C,MX3*%
X39989285Y-100639880D02*
X39989285Y-99639880D01*
X40322619Y-100354166D01*
X40655952Y-99639880D01*
X40655952Y-100639880D01*
X41036904Y-99639880D02*
X41703571Y-100639880D01*
X41703571Y-99639880D02*
X41036904Y-100639880D01*
X41989285Y-99639880D02*
X42608333Y-99639880D01*
X42275000Y-100020833D01*
X42417857Y-100020833D01*
X42513095Y-100068452D01*
X42560714Y-100116071D01*
X42608333Y-100211309D01*
X42608333Y-100449404D01*
X42560714Y-100544642D01*
X42513095Y-100592261D01*
X42417857Y-100639880D01*
X42132142Y-100639880D01*
X42036904Y-100592261D01*
X41989285Y-100544642D01*
%TO.C,MX4*%
X39989285Y-119689880D02*
X39989285Y-118689880D01*
X40322619Y-119404166D01*
X40655952Y-118689880D01*
X40655952Y-119689880D01*
X41036904Y-118689880D02*
X41703571Y-119689880D01*
X41703571Y-118689880D02*
X41036904Y-119689880D01*
X42513095Y-119023214D02*
X42513095Y-119689880D01*
X42275000Y-118642261D02*
X42036904Y-119356547D01*
X42655952Y-119356547D01*
%TO.C,MX14*%
X96663095Y-81589880D02*
X96663095Y-80589880D01*
X96996428Y-81304166D01*
X97329761Y-80589880D01*
X97329761Y-81589880D01*
X97710714Y-80589880D02*
X98377380Y-81589880D01*
X98377380Y-80589880D02*
X97710714Y-81589880D01*
X99282142Y-81589880D02*
X98710714Y-81589880D01*
X98996428Y-81589880D02*
X98996428Y-80589880D01*
X98901190Y-80732738D01*
X98805952Y-80827976D01*
X98710714Y-80875595D01*
X100139285Y-80923214D02*
X100139285Y-81589880D01*
X99901190Y-80542261D02*
X99663095Y-81256547D01*
X100282142Y-81256547D01*
%TO.C,MX17*%
X115713095Y-62539880D02*
X115713095Y-61539880D01*
X116046428Y-62254166D01*
X116379761Y-61539880D01*
X116379761Y-62539880D01*
X116760714Y-61539880D02*
X117427380Y-62539880D01*
X117427380Y-61539880D02*
X116760714Y-62539880D01*
X118332142Y-62539880D02*
X117760714Y-62539880D01*
X118046428Y-62539880D02*
X118046428Y-61539880D01*
X117951190Y-61682738D01*
X117855952Y-61777976D01*
X117760714Y-61825595D01*
X118665476Y-61539880D02*
X119332142Y-61539880D01*
X118903571Y-62539880D01*
%TO.C,MX9*%
X78089285Y-62539880D02*
X78089285Y-61539880D01*
X78422619Y-62254166D01*
X78755952Y-61539880D01*
X78755952Y-62539880D01*
X79136904Y-61539880D02*
X79803571Y-62539880D01*
X79803571Y-61539880D02*
X79136904Y-62539880D01*
X80232142Y-62539880D02*
X80422619Y-62539880D01*
X80517857Y-62492261D01*
X80565476Y-62444642D01*
X80660714Y-62301785D01*
X80708333Y-62111309D01*
X80708333Y-61730357D01*
X80660714Y-61635119D01*
X80613095Y-61587500D01*
X80517857Y-61539880D01*
X80327380Y-61539880D01*
X80232142Y-61587500D01*
X80184523Y-61635119D01*
X80136904Y-61730357D01*
X80136904Y-61968452D01*
X80184523Y-62063690D01*
X80232142Y-62111309D01*
X80327380Y-62158928D01*
X80517857Y-62158928D01*
X80613095Y-62111309D01*
X80660714Y-62063690D01*
X80708333Y-61968452D01*
%TO.C,MX12*%
X77613095Y-119689880D02*
X77613095Y-118689880D01*
X77946428Y-119404166D01*
X78279761Y-118689880D01*
X78279761Y-119689880D01*
X78660714Y-118689880D02*
X79327380Y-119689880D01*
X79327380Y-118689880D02*
X78660714Y-119689880D01*
X80232142Y-119689880D02*
X79660714Y-119689880D01*
X79946428Y-119689880D02*
X79946428Y-118689880D01*
X79851190Y-118832738D01*
X79755952Y-118927976D01*
X79660714Y-118975595D01*
X80613095Y-118785119D02*
X80660714Y-118737500D01*
X80755952Y-118689880D01*
X80994047Y-118689880D01*
X81089285Y-118737500D01*
X81136904Y-118785119D01*
X81184523Y-118880357D01*
X81184523Y-118975595D01*
X81136904Y-119118452D01*
X80565476Y-119689880D01*
X81184523Y-119689880D01*
%TO.C,MX8*%
X59039285Y-119689880D02*
X59039285Y-118689880D01*
X59372619Y-119404166D01*
X59705952Y-118689880D01*
X59705952Y-119689880D01*
X60086904Y-118689880D02*
X60753571Y-119689880D01*
X60753571Y-118689880D02*
X60086904Y-119689880D01*
X61277380Y-119118452D02*
X61182142Y-119070833D01*
X61134523Y-119023214D01*
X61086904Y-118927976D01*
X61086904Y-118880357D01*
X61134523Y-118785119D01*
X61182142Y-118737500D01*
X61277380Y-118689880D01*
X61467857Y-118689880D01*
X61563095Y-118737500D01*
X61610714Y-118785119D01*
X61658333Y-118880357D01*
X61658333Y-118927976D01*
X61610714Y-119023214D01*
X61563095Y-119070833D01*
X61467857Y-119118452D01*
X61277380Y-119118452D01*
X61182142Y-119166071D01*
X61134523Y-119213690D01*
X61086904Y-119308928D01*
X61086904Y-119499404D01*
X61134523Y-119594642D01*
X61182142Y-119642261D01*
X61277380Y-119689880D01*
X61467857Y-119689880D01*
X61563095Y-119642261D01*
X61610714Y-119594642D01*
X61658333Y-119499404D01*
X61658333Y-119308928D01*
X61610714Y-119213690D01*
X61563095Y-119166071D01*
X61467857Y-119118452D01*
%TO.C,MX6*%
X59039285Y-81589880D02*
X59039285Y-80589880D01*
X59372619Y-81304166D01*
X59705952Y-80589880D01*
X59705952Y-81589880D01*
X60086904Y-80589880D02*
X60753571Y-81589880D01*
X60753571Y-80589880D02*
X60086904Y-81589880D01*
X61563095Y-80589880D02*
X61372619Y-80589880D01*
X61277380Y-80637500D01*
X61229761Y-80685119D01*
X61134523Y-80827976D01*
X61086904Y-81018452D01*
X61086904Y-81399404D01*
X61134523Y-81494642D01*
X61182142Y-81542261D01*
X61277380Y-81589880D01*
X61467857Y-81589880D01*
X61563095Y-81542261D01*
X61610714Y-81494642D01*
X61658333Y-81399404D01*
X61658333Y-81161309D01*
X61610714Y-81066071D01*
X61563095Y-81018452D01*
X61467857Y-80970833D01*
X61277380Y-80970833D01*
X61182142Y-81018452D01*
X61134523Y-81066071D01*
X61086904Y-81161309D01*
%TO.C,MX10*%
X77613095Y-81589880D02*
X77613095Y-80589880D01*
X77946428Y-81304166D01*
X78279761Y-80589880D01*
X78279761Y-81589880D01*
X78660714Y-80589880D02*
X79327380Y-81589880D01*
X79327380Y-80589880D02*
X78660714Y-81589880D01*
X80232142Y-81589880D02*
X79660714Y-81589880D01*
X79946428Y-81589880D02*
X79946428Y-80589880D01*
X79851190Y-80732738D01*
X79755952Y-80827976D01*
X79660714Y-80875595D01*
X80851190Y-80589880D02*
X80946428Y-80589880D01*
X81041666Y-80637500D01*
X81089285Y-80685119D01*
X81136904Y-80780357D01*
X81184523Y-80970833D01*
X81184523Y-81208928D01*
X81136904Y-81399404D01*
X81089285Y-81494642D01*
X81041666Y-81542261D01*
X80946428Y-81589880D01*
X80851190Y-81589880D01*
X80755952Y-81542261D01*
X80708333Y-81494642D01*
X80660714Y-81399404D01*
X80613095Y-81208928D01*
X80613095Y-80970833D01*
X80660714Y-80780357D01*
X80708333Y-80685119D01*
X80755952Y-80637500D01*
X80851190Y-80589880D01*
%TO.C,MX5*%
X59039285Y-62539880D02*
X59039285Y-61539880D01*
X59372619Y-62254166D01*
X59705952Y-61539880D01*
X59705952Y-62539880D01*
X60086904Y-61539880D02*
X60753571Y-62539880D01*
X60753571Y-61539880D02*
X60086904Y-62539880D01*
X61610714Y-61539880D02*
X61134523Y-61539880D01*
X61086904Y-62016071D01*
X61134523Y-61968452D01*
X61229761Y-61920833D01*
X61467857Y-61920833D01*
X61563095Y-61968452D01*
X61610714Y-62016071D01*
X61658333Y-62111309D01*
X61658333Y-62349404D01*
X61610714Y-62444642D01*
X61563095Y-62492261D01*
X61467857Y-62539880D01*
X61229761Y-62539880D01*
X61134523Y-62492261D01*
X61086904Y-62444642D01*
%TO.C,MX18*%
X115713095Y-81589880D02*
X115713095Y-80589880D01*
X116046428Y-81304166D01*
X116379761Y-80589880D01*
X116379761Y-81589880D01*
X116760714Y-80589880D02*
X117427380Y-81589880D01*
X117427380Y-80589880D02*
X116760714Y-81589880D01*
X118332142Y-81589880D02*
X117760714Y-81589880D01*
X118046428Y-81589880D02*
X118046428Y-80589880D01*
X117951190Y-80732738D01*
X117855952Y-80827976D01*
X117760714Y-80875595D01*
X118903571Y-81018452D02*
X118808333Y-80970833D01*
X118760714Y-80923214D01*
X118713095Y-80827976D01*
X118713095Y-80780357D01*
X118760714Y-80685119D01*
X118808333Y-80637500D01*
X118903571Y-80589880D01*
X119094047Y-80589880D01*
X119189285Y-80637500D01*
X119236904Y-80685119D01*
X119284523Y-80780357D01*
X119284523Y-80827976D01*
X119236904Y-80923214D01*
X119189285Y-80970833D01*
X119094047Y-81018452D01*
X118903571Y-81018452D01*
X118808333Y-81066071D01*
X118760714Y-81113690D01*
X118713095Y-81208928D01*
X118713095Y-81399404D01*
X118760714Y-81494642D01*
X118808333Y-81542261D01*
X118903571Y-81589880D01*
X119094047Y-81589880D01*
X119189285Y-81542261D01*
X119236904Y-81494642D01*
X119284523Y-81399404D01*
X119284523Y-81208928D01*
X119236904Y-81113690D01*
X119189285Y-81066071D01*
X119094047Y-81018452D01*
%TO.C,MX7*%
X59039285Y-100639880D02*
X59039285Y-99639880D01*
X59372619Y-100354166D01*
X59705952Y-99639880D01*
X59705952Y-100639880D01*
X60086904Y-99639880D02*
X60753571Y-100639880D01*
X60753571Y-99639880D02*
X60086904Y-100639880D01*
X61039285Y-99639880D02*
X61705952Y-99639880D01*
X61277380Y-100639880D01*
%TO.C,MX1*%
X39989285Y-62539880D02*
X39989285Y-61539880D01*
X40322619Y-62254166D01*
X40655952Y-61539880D01*
X40655952Y-62539880D01*
X41036904Y-61539880D02*
X41703571Y-62539880D01*
X41703571Y-61539880D02*
X41036904Y-62539880D01*
X42608333Y-62539880D02*
X42036904Y-62539880D01*
X42322619Y-62539880D02*
X42322619Y-61539880D01*
X42227380Y-61682738D01*
X42132142Y-61777976D01*
X42036904Y-61825595D01*
%TO.C,MX21*%
X106188095Y-125689880D02*
X106188095Y-124689880D01*
X106521428Y-125404166D01*
X106854761Y-124689880D01*
X106854761Y-125689880D01*
X107235714Y-124689880D02*
X107902380Y-125689880D01*
X107902380Y-124689880D02*
X107235714Y-125689880D01*
X108235714Y-124785119D02*
X108283333Y-124737500D01*
X108378571Y-124689880D01*
X108616666Y-124689880D01*
X108711904Y-124737500D01*
X108759523Y-124785119D01*
X108807142Y-124880357D01*
X108807142Y-124975595D01*
X108759523Y-125118452D01*
X108188095Y-125689880D01*
X108807142Y-125689880D01*
X109759523Y-125689880D02*
X109188095Y-125689880D01*
X109473809Y-125689880D02*
X109473809Y-124689880D01*
X109378571Y-124832738D01*
X109283333Y-124927976D01*
X109188095Y-124975595D01*
%TO.C,U1*%
X65519333Y-71697857D02*
X65252666Y-71697857D01*
X65252666Y-72116904D02*
X65252666Y-71316904D01*
X65633619Y-71316904D01*
X66319333Y-71316904D02*
X65938380Y-71316904D01*
X65900285Y-71697857D01*
X65938380Y-71659761D01*
X66014571Y-71621666D01*
X66205047Y-71621666D01*
X66281238Y-71659761D01*
X66319333Y-71697857D01*
X66357428Y-71774047D01*
X66357428Y-71964523D01*
X66319333Y-72040714D01*
X66281238Y-72078809D01*
X66205047Y-72116904D01*
X66014571Y-72116904D01*
X65938380Y-72078809D01*
X65900285Y-72040714D01*
X54311619Y-81857857D02*
X54578285Y-81857857D01*
X54692571Y-82276904D02*
X54311619Y-82276904D01*
X54311619Y-81476904D01*
X54692571Y-81476904D01*
X55378285Y-81476904D02*
X55225904Y-81476904D01*
X55149714Y-81515000D01*
X55111619Y-81553095D01*
X55035428Y-81667380D01*
X54997333Y-81819761D01*
X54997333Y-82124523D01*
X55035428Y-82200714D01*
X55073523Y-82238809D01*
X55149714Y-82276904D01*
X55302095Y-82276904D01*
X55378285Y-82238809D01*
X55416380Y-82200714D01*
X55454476Y-82124523D01*
X55454476Y-81934047D01*
X55416380Y-81857857D01*
X55378285Y-81819761D01*
X55302095Y-81781666D01*
X55149714Y-81781666D01*
X55073523Y-81819761D01*
X55035428Y-81857857D01*
X54997333Y-81934047D01*
X65519333Y-76777857D02*
X65252666Y-76777857D01*
X65252666Y-77196904D02*
X65252666Y-76396904D01*
X65633619Y-76396904D01*
X65862190Y-76396904D02*
X66395523Y-76396904D01*
X66052666Y-77196904D01*
X54254476Y-66275000D02*
X54178285Y-66236904D01*
X54064000Y-66236904D01*
X53949714Y-66275000D01*
X53873523Y-66351190D01*
X53835428Y-66427380D01*
X53797333Y-66579761D01*
X53797333Y-66694047D01*
X53835428Y-66846428D01*
X53873523Y-66922619D01*
X53949714Y-66998809D01*
X54064000Y-67036904D01*
X54140190Y-67036904D01*
X54254476Y-66998809D01*
X54292571Y-66960714D01*
X54292571Y-66694047D01*
X54140190Y-66694047D01*
X54635428Y-67036904D02*
X54635428Y-66236904D01*
X55092571Y-67036904D01*
X55092571Y-66236904D01*
X55473523Y-67036904D02*
X55473523Y-66236904D01*
X55664000Y-66236904D01*
X55778285Y-66275000D01*
X55854476Y-66351190D01*
X55892571Y-66427380D01*
X55930666Y-66579761D01*
X55930666Y-66694047D01*
X55892571Y-66846428D01*
X55854476Y-66922619D01*
X55778285Y-66998809D01*
X55664000Y-67036904D01*
X55473523Y-67036904D01*
X65462190Y-79317857D02*
X65576476Y-79355952D01*
X65614571Y-79394047D01*
X65652666Y-79470238D01*
X65652666Y-79584523D01*
X65614571Y-79660714D01*
X65576476Y-79698809D01*
X65500285Y-79736904D01*
X65195523Y-79736904D01*
X65195523Y-78936904D01*
X65462190Y-78936904D01*
X65538380Y-78975000D01*
X65576476Y-79013095D01*
X65614571Y-79089285D01*
X65614571Y-79165476D01*
X65576476Y-79241666D01*
X65538380Y-79279761D01*
X65462190Y-79317857D01*
X65195523Y-79317857D01*
X66414571Y-79736904D02*
X65957428Y-79736904D01*
X66186000Y-79736904D02*
X66186000Y-78936904D01*
X66109809Y-79051190D01*
X66033619Y-79127380D01*
X65957428Y-79165476D01*
X54540190Y-86937857D02*
X54654476Y-86975952D01*
X54692571Y-87014047D01*
X54730666Y-87090238D01*
X54730666Y-87204523D01*
X54692571Y-87280714D01*
X54654476Y-87318809D01*
X54578285Y-87356904D01*
X54273523Y-87356904D01*
X54273523Y-86556904D01*
X54540190Y-86556904D01*
X54616380Y-86595000D01*
X54654476Y-86633095D01*
X54692571Y-86709285D01*
X54692571Y-86785476D01*
X54654476Y-86861666D01*
X54616380Y-86899761D01*
X54540190Y-86937857D01*
X54273523Y-86937857D01*
X55454476Y-86556904D02*
X55073523Y-86556904D01*
X55035428Y-86937857D01*
X55073523Y-86899761D01*
X55149714Y-86861666D01*
X55340190Y-86861666D01*
X55416380Y-86899761D01*
X55454476Y-86937857D01*
X55492571Y-87014047D01*
X55492571Y-87204523D01*
X55454476Y-87280714D01*
X55416380Y-87318809D01*
X55340190Y-87356904D01*
X55149714Y-87356904D01*
X55073523Y-87318809D01*
X55035428Y-87280714D01*
X54273523Y-74656904D02*
X54273523Y-73856904D01*
X54464000Y-73856904D01*
X54578285Y-73895000D01*
X54654476Y-73971190D01*
X54692571Y-74047380D01*
X54730666Y-74199761D01*
X54730666Y-74314047D01*
X54692571Y-74466428D01*
X54654476Y-74542619D01*
X54578285Y-74618809D01*
X54464000Y-74656904D01*
X54273523Y-74656904D01*
X55416380Y-74123571D02*
X55416380Y-74656904D01*
X55225904Y-73818809D02*
X55035428Y-74390238D01*
X55530666Y-74390238D01*
X65519333Y-69157857D02*
X65252666Y-69157857D01*
X65252666Y-69576904D02*
X65252666Y-68776904D01*
X65633619Y-68776904D01*
X66281238Y-69043571D02*
X66281238Y-69576904D01*
X66090761Y-68738809D02*
X65900285Y-69310238D01*
X66395523Y-69310238D01*
X65462190Y-84397857D02*
X65576476Y-84435952D01*
X65614571Y-84474047D01*
X65652666Y-84550238D01*
X65652666Y-84664523D01*
X65614571Y-84740714D01*
X65576476Y-84778809D01*
X65500285Y-84816904D01*
X65195523Y-84816904D01*
X65195523Y-84016904D01*
X65462190Y-84016904D01*
X65538380Y-84055000D01*
X65576476Y-84093095D01*
X65614571Y-84169285D01*
X65614571Y-84245476D01*
X65576476Y-84321666D01*
X65538380Y-84359761D01*
X65462190Y-84397857D01*
X65195523Y-84397857D01*
X65957428Y-84093095D02*
X65995523Y-84055000D01*
X66071714Y-84016904D01*
X66262190Y-84016904D01*
X66338380Y-84055000D01*
X66376476Y-84093095D01*
X66414571Y-84169285D01*
X66414571Y-84245476D01*
X66376476Y-84359761D01*
X65919333Y-84816904D01*
X66414571Y-84816904D01*
X54254476Y-63735000D02*
X54178285Y-63696904D01*
X54064000Y-63696904D01*
X53949714Y-63735000D01*
X53873523Y-63811190D01*
X53835428Y-63887380D01*
X53797333Y-64039761D01*
X53797333Y-64154047D01*
X53835428Y-64306428D01*
X53873523Y-64382619D01*
X53949714Y-64458809D01*
X54064000Y-64496904D01*
X54140190Y-64496904D01*
X54254476Y-64458809D01*
X54292571Y-64420714D01*
X54292571Y-64154047D01*
X54140190Y-64154047D01*
X54635428Y-64496904D02*
X54635428Y-63696904D01*
X55092571Y-64496904D01*
X55092571Y-63696904D01*
X55473523Y-64496904D02*
X55473523Y-63696904D01*
X55664000Y-63696904D01*
X55778285Y-63735000D01*
X55854476Y-63811190D01*
X55892571Y-63887380D01*
X55930666Y-64039761D01*
X55930666Y-64154047D01*
X55892571Y-64306428D01*
X55854476Y-64382619D01*
X55778285Y-64458809D01*
X55664000Y-64496904D01*
X55473523Y-64496904D01*
X54273523Y-79736904D02*
X54273523Y-78936904D01*
X54464000Y-78936904D01*
X54578285Y-78975000D01*
X54654476Y-79051190D01*
X54692571Y-79127380D01*
X54730666Y-79279761D01*
X54730666Y-79394047D01*
X54692571Y-79546428D01*
X54654476Y-79622619D01*
X54578285Y-79698809D01*
X54464000Y-79736904D01*
X54273523Y-79736904D01*
X54997333Y-78936904D02*
X55530666Y-78936904D01*
X55187809Y-79736904D01*
X65176476Y-61195000D02*
X65100285Y-61156904D01*
X64986000Y-61156904D01*
X64871714Y-61195000D01*
X64795523Y-61271190D01*
X64757428Y-61347380D01*
X64719333Y-61499761D01*
X64719333Y-61614047D01*
X64757428Y-61766428D01*
X64795523Y-61842619D01*
X64871714Y-61918809D01*
X64986000Y-61956904D01*
X65062190Y-61956904D01*
X65176476Y-61918809D01*
X65214571Y-61880714D01*
X65214571Y-61614047D01*
X65062190Y-61614047D01*
X65557428Y-61956904D02*
X65557428Y-61156904D01*
X66014571Y-61956904D01*
X66014571Y-61156904D01*
X66395523Y-61956904D02*
X66395523Y-61156904D01*
X66586000Y-61156904D01*
X66700285Y-61195000D01*
X66776476Y-61271190D01*
X66814571Y-61347380D01*
X66852666Y-61499761D01*
X66852666Y-61614047D01*
X66814571Y-61766428D01*
X66776476Y-61842619D01*
X66700285Y-61918809D01*
X66586000Y-61956904D01*
X66395523Y-61956904D01*
X65524786Y-64428809D02*
X65639072Y-64466904D01*
X65829548Y-64466904D01*
X65905739Y-64428809D01*
X65943834Y-64390714D01*
X65981929Y-64314523D01*
X65981929Y-64238333D01*
X65943834Y-64162142D01*
X65905739Y-64124047D01*
X65829548Y-64085952D01*
X65677167Y-64047857D01*
X65600977Y-64009761D01*
X65562881Y-63971666D01*
X65524786Y-63895476D01*
X65524786Y-63819285D01*
X65562881Y-63743095D01*
X65600977Y-63705000D01*
X65677167Y-63666904D01*
X65867643Y-63666904D01*
X65981929Y-63705000D01*
X66210500Y-63666904D02*
X66667643Y-63666904D01*
X66439072Y-64466904D02*
X66439072Y-63666904D01*
X64719333Y-66236904D02*
X64986000Y-67036904D01*
X65252666Y-66236904D01*
X65976476Y-66960714D02*
X65938380Y-66998809D01*
X65824095Y-67036904D01*
X65747904Y-67036904D01*
X65633619Y-66998809D01*
X65557428Y-66922619D01*
X65519333Y-66846428D01*
X65481238Y-66694047D01*
X65481238Y-66579761D01*
X65519333Y-66427380D01*
X65557428Y-66351190D01*
X65633619Y-66275000D01*
X65747904Y-66236904D01*
X65824095Y-66236904D01*
X65938380Y-66275000D01*
X65976476Y-66313095D01*
X66776476Y-66960714D02*
X66738380Y-66998809D01*
X66624095Y-67036904D01*
X66547904Y-67036904D01*
X66433619Y-66998809D01*
X66357428Y-66922619D01*
X66319333Y-66846428D01*
X66281238Y-66694047D01*
X66281238Y-66579761D01*
X66319333Y-66427380D01*
X66357428Y-66351190D01*
X66433619Y-66275000D01*
X66547904Y-66236904D01*
X66624095Y-66236904D01*
X66738380Y-66275000D01*
X66776476Y-66313095D01*
X54540190Y-84397857D02*
X54654476Y-84435952D01*
X54692571Y-84474047D01*
X54730666Y-84550238D01*
X54730666Y-84664523D01*
X54692571Y-84740714D01*
X54654476Y-84778809D01*
X54578285Y-84816904D01*
X54273523Y-84816904D01*
X54273523Y-84016904D01*
X54540190Y-84016904D01*
X54616380Y-84055000D01*
X54654476Y-84093095D01*
X54692571Y-84169285D01*
X54692571Y-84245476D01*
X54654476Y-84321666D01*
X54616380Y-84359761D01*
X54540190Y-84397857D01*
X54273523Y-84397857D01*
X55416380Y-84283571D02*
X55416380Y-84816904D01*
X55225904Y-83978809D02*
X55035428Y-84550238D01*
X55530666Y-84550238D01*
X65462190Y-86937857D02*
X65576476Y-86975952D01*
X65614571Y-87014047D01*
X65652666Y-87090238D01*
X65652666Y-87204523D01*
X65614571Y-87280714D01*
X65576476Y-87318809D01*
X65500285Y-87356904D01*
X65195523Y-87356904D01*
X65195523Y-86556904D01*
X65462190Y-86556904D01*
X65538380Y-86595000D01*
X65576476Y-86633095D01*
X65614571Y-86709285D01*
X65614571Y-86785476D01*
X65576476Y-86861666D01*
X65538380Y-86899761D01*
X65462190Y-86937857D01*
X65195523Y-86937857D01*
X66338380Y-86556904D02*
X66186000Y-86556904D01*
X66109809Y-86595000D01*
X66071714Y-86633095D01*
X65995523Y-86747380D01*
X65957428Y-86899761D01*
X65957428Y-87204523D01*
X65995523Y-87280714D01*
X66033619Y-87318809D01*
X66109809Y-87356904D01*
X66262190Y-87356904D01*
X66338380Y-87318809D01*
X66376476Y-87280714D01*
X66414571Y-87204523D01*
X66414571Y-87014047D01*
X66376476Y-86937857D01*
X66338380Y-86899761D01*
X66262190Y-86861666D01*
X66109809Y-86861666D01*
X66033619Y-86899761D01*
X65995523Y-86937857D01*
X65957428Y-87014047D01*
X65233619Y-59416904D02*
X64966952Y-59035952D01*
X64776476Y-59416904D02*
X64776476Y-58616904D01*
X65081238Y-58616904D01*
X65157428Y-58655000D01*
X65195523Y-58693095D01*
X65233619Y-58769285D01*
X65233619Y-58883571D01*
X65195523Y-58959761D01*
X65157428Y-58997857D01*
X65081238Y-59035952D01*
X64776476Y-59035952D01*
X65538380Y-59188333D02*
X65919333Y-59188333D01*
X65462190Y-59416904D02*
X65728857Y-58616904D01*
X65995523Y-59416904D01*
X66186000Y-58616904D02*
X66376476Y-59416904D01*
X66528857Y-58845476D01*
X66681238Y-59416904D01*
X66871714Y-58616904D01*
X65519333Y-74237857D02*
X65252666Y-74237857D01*
X65252666Y-74656904D02*
X65252666Y-73856904D01*
X65633619Y-73856904D01*
X66281238Y-73856904D02*
X66128857Y-73856904D01*
X66052666Y-73895000D01*
X66014571Y-73933095D01*
X65938380Y-74047380D01*
X65900285Y-74199761D01*
X65900285Y-74504523D01*
X65938380Y-74580714D01*
X65976476Y-74618809D01*
X66052666Y-74656904D01*
X66205047Y-74656904D01*
X66281238Y-74618809D01*
X66319333Y-74580714D01*
X66357428Y-74504523D01*
X66357428Y-74314047D01*
X66319333Y-74237857D01*
X66281238Y-74199761D01*
X66205047Y-74161666D01*
X66052666Y-74161666D01*
X65976476Y-74199761D01*
X65938380Y-74237857D01*
X65900285Y-74314047D01*
X54273523Y-69576904D02*
X54273523Y-68776904D01*
X54464000Y-68776904D01*
X54578285Y-68815000D01*
X54654476Y-68891190D01*
X54692571Y-68967380D01*
X54730666Y-69119761D01*
X54730666Y-69234047D01*
X54692571Y-69386428D01*
X54654476Y-69462619D01*
X54578285Y-69538809D01*
X54464000Y-69576904D01*
X54273523Y-69576904D01*
X55492571Y-69576904D02*
X55035428Y-69576904D01*
X55264000Y-69576904D02*
X55264000Y-68776904D01*
X55187809Y-68891190D01*
X55111619Y-68967380D01*
X55035428Y-69005476D01*
X54730666Y-77120714D02*
X54692571Y-77158809D01*
X54578285Y-77196904D01*
X54502095Y-77196904D01*
X54387809Y-77158809D01*
X54311619Y-77082619D01*
X54273523Y-77006428D01*
X54235428Y-76854047D01*
X54235428Y-76739761D01*
X54273523Y-76587380D01*
X54311619Y-76511190D01*
X54387809Y-76435000D01*
X54502095Y-76396904D01*
X54578285Y-76396904D01*
X54692571Y-76435000D01*
X54730666Y-76473095D01*
X55416380Y-76396904D02*
X55264000Y-76396904D01*
X55187809Y-76435000D01*
X55149714Y-76473095D01*
X55073523Y-76587380D01*
X55035428Y-76739761D01*
X55035428Y-77044523D01*
X55073523Y-77120714D01*
X55111619Y-77158809D01*
X55187809Y-77196904D01*
X55340190Y-77196904D01*
X55416380Y-77158809D01*
X55454476Y-77120714D01*
X55492571Y-77044523D01*
X55492571Y-76854047D01*
X55454476Y-76777857D01*
X55416380Y-76739761D01*
X55340190Y-76701666D01*
X55187809Y-76701666D01*
X55111619Y-76739761D01*
X55073523Y-76777857D01*
X55035428Y-76854047D01*
X54562651Y-58616904D02*
X55019794Y-58616904D01*
X54791223Y-59416904D02*
X54791223Y-58616904D01*
X55210270Y-58616904D02*
X55743604Y-59416904D01*
X55743604Y-58616904D02*
X55210270Y-59416904D01*
X56200747Y-58616904D02*
X56276937Y-58616904D01*
X56353128Y-58655000D01*
X56391223Y-58693095D01*
X56429318Y-58769285D01*
X56467413Y-58921666D01*
X56467413Y-59112142D01*
X56429318Y-59264523D01*
X56391223Y-59340714D01*
X56353128Y-59378809D01*
X56276937Y-59416904D01*
X56200747Y-59416904D01*
X56124556Y-59378809D01*
X56086461Y-59340714D01*
X56048366Y-59264523D01*
X56010270Y-59112142D01*
X56010270Y-58921666D01*
X56048366Y-58769285D01*
X56086461Y-58693095D01*
X56124556Y-58655000D01*
X56200747Y-58616904D01*
X57381699Y-58578809D02*
X56695985Y-59607380D01*
X57648366Y-59416904D02*
X57648366Y-58616904D01*
X57838842Y-58616904D01*
X57953128Y-58655000D01*
X58029318Y-58731190D01*
X58067413Y-58807380D01*
X58105508Y-58959761D01*
X58105508Y-59074047D01*
X58067413Y-59226428D01*
X58029318Y-59302619D01*
X57953128Y-59378809D01*
X57838842Y-59416904D01*
X57648366Y-59416904D01*
X58372175Y-58616904D02*
X58867413Y-58616904D01*
X58600747Y-58921666D01*
X58715032Y-58921666D01*
X58791223Y-58959761D01*
X58829318Y-58997857D01*
X58867413Y-59074047D01*
X58867413Y-59264523D01*
X58829318Y-59340714D01*
X58791223Y-59378809D01*
X58715032Y-59416904D01*
X58486461Y-59416904D01*
X58410270Y-59378809D01*
X58372175Y-59340714D01*
X65462190Y-81857857D02*
X65576476Y-81895952D01*
X65614571Y-81934047D01*
X65652666Y-82010238D01*
X65652666Y-82124523D01*
X65614571Y-82200714D01*
X65576476Y-82238809D01*
X65500285Y-82276904D01*
X65195523Y-82276904D01*
X65195523Y-81476904D01*
X65462190Y-81476904D01*
X65538380Y-81515000D01*
X65576476Y-81553095D01*
X65614571Y-81629285D01*
X65614571Y-81705476D01*
X65576476Y-81781666D01*
X65538380Y-81819761D01*
X65462190Y-81857857D01*
X65195523Y-81857857D01*
X65919333Y-81476904D02*
X66414571Y-81476904D01*
X66147904Y-81781666D01*
X66262190Y-81781666D01*
X66338380Y-81819761D01*
X66376476Y-81857857D01*
X66414571Y-81934047D01*
X66414571Y-82124523D01*
X66376476Y-82200714D01*
X66338380Y-82238809D01*
X66262190Y-82276904D01*
X66033619Y-82276904D01*
X65957428Y-82238809D01*
X65919333Y-82200714D01*
X54273523Y-61956904D02*
X54273523Y-61156904D01*
X54464000Y-61156904D01*
X54578285Y-61195000D01*
X54654476Y-61271190D01*
X54692571Y-61347380D01*
X54730666Y-61499761D01*
X54730666Y-61614047D01*
X54692571Y-61766428D01*
X54654476Y-61842619D01*
X54578285Y-61918809D01*
X54464000Y-61956904D01*
X54273523Y-61956904D01*
X55035428Y-61233095D02*
X55073523Y-61195000D01*
X55149714Y-61156904D01*
X55340190Y-61156904D01*
X55416380Y-61195000D01*
X55454476Y-61233095D01*
X55492571Y-61309285D01*
X55492571Y-61385476D01*
X55454476Y-61499761D01*
X54997333Y-61956904D01*
X55492571Y-61956904D01*
X54273523Y-72116904D02*
X54273523Y-71316904D01*
X54464000Y-71316904D01*
X54578285Y-71355000D01*
X54654476Y-71431190D01*
X54692571Y-71507380D01*
X54730666Y-71659761D01*
X54730666Y-71774047D01*
X54692571Y-71926428D01*
X54654476Y-72002619D01*
X54578285Y-72078809D01*
X54464000Y-72116904D01*
X54273523Y-72116904D01*
X55225904Y-71316904D02*
X55302095Y-71316904D01*
X55378285Y-71355000D01*
X55416380Y-71393095D01*
X55454476Y-71469285D01*
X55492571Y-71621666D01*
X55492571Y-71812142D01*
X55454476Y-71964523D01*
X55416380Y-72040714D01*
X55378285Y-72078809D01*
X55302095Y-72116904D01*
X55225904Y-72116904D01*
X55149714Y-72078809D01*
X55111619Y-72040714D01*
X55073523Y-71964523D01*
X55035428Y-71812142D01*
X55035428Y-71621666D01*
X55073523Y-71469285D01*
X55111619Y-71393095D01*
X55149714Y-71355000D01*
X55225904Y-71316904D01*
%TO.C,MX13*%
X96663095Y-62539880D02*
X96663095Y-61539880D01*
X96996428Y-62254166D01*
X97329761Y-61539880D01*
X97329761Y-62539880D01*
X97710714Y-61539880D02*
X98377380Y-62539880D01*
X98377380Y-61539880D02*
X97710714Y-62539880D01*
X99282142Y-62539880D02*
X98710714Y-62539880D01*
X98996428Y-62539880D02*
X98996428Y-61539880D01*
X98901190Y-61682738D01*
X98805952Y-61777976D01*
X98710714Y-61825595D01*
X99615476Y-61539880D02*
X100234523Y-61539880D01*
X99901190Y-61920833D01*
X100044047Y-61920833D01*
X100139285Y-61968452D01*
X100186904Y-62016071D01*
X100234523Y-62111309D01*
X100234523Y-62349404D01*
X100186904Y-62444642D01*
X100139285Y-62492261D01*
X100044047Y-62539880D01*
X99758333Y-62539880D01*
X99663095Y-62492261D01*
X99615476Y-62444642D01*
%TO.C,U2*%
X112030000Y-56867500D02*
X112030000Y-68967500D01*
X111780000Y-54867500D02*
X106180000Y-54867500D01*
X106180000Y-56867500D02*
X106180000Y-54867500D01*
X112030000Y-68967500D02*
X105930000Y-68967500D01*
X111780000Y-56867500D02*
X111780000Y-54867500D01*
X112030000Y-56867500D02*
X105930000Y-56867500D01*
X105930000Y-56867500D02*
X105930000Y-68967500D01*
%TO.C,MX20*%
X124475000Y-129237500D02*
X123475000Y-129237500D01*
X110475000Y-115237500D02*
X111475000Y-115237500D01*
X123475000Y-115237500D02*
X124475000Y-115237500D01*
X124475000Y-115237500D02*
X124475000Y-116237500D01*
X111475000Y-129237500D02*
X110475000Y-129237500D01*
X110475000Y-116237500D02*
X110475000Y-115237500D01*
X110475000Y-129237500D02*
X110475000Y-128237500D01*
X124475000Y-128237500D02*
X124475000Y-129237500D01*
%TO.C,MX16*%
X105425000Y-128237500D02*
X105425000Y-129237500D01*
X104425000Y-115237500D02*
X105425000Y-115237500D01*
X105425000Y-129237500D02*
X104425000Y-129237500D01*
X105425000Y-115237500D02*
X105425000Y-116237500D01*
X91425000Y-115237500D02*
X92425000Y-115237500D01*
X92425000Y-129237500D02*
X91425000Y-129237500D01*
X91425000Y-129237500D02*
X91425000Y-128237500D01*
X91425000Y-116237500D02*
X91425000Y-115237500D01*
%TO.C,MX15*%
X92425000Y-110187500D02*
X91425000Y-110187500D01*
X91425000Y-96187500D02*
X92425000Y-96187500D01*
X104425000Y-96187500D02*
X105425000Y-96187500D01*
X105425000Y-110187500D02*
X104425000Y-110187500D01*
X105425000Y-109187500D02*
X105425000Y-110187500D01*
X91425000Y-110187500D02*
X91425000Y-109187500D01*
X105425000Y-96187500D02*
X105425000Y-97187500D01*
X91425000Y-97187500D02*
X91425000Y-96187500D01*
%TO.C,MX19*%
X110475000Y-97187500D02*
X110475000Y-96187500D01*
X123475000Y-96187500D02*
X124475000Y-96187500D01*
X111475000Y-110187500D02*
X110475000Y-110187500D01*
X124475000Y-109187500D02*
X124475000Y-110187500D01*
X124475000Y-110187500D02*
X123475000Y-110187500D01*
X124475000Y-96187500D02*
X124475000Y-97187500D01*
X110475000Y-96187500D02*
X111475000Y-96187500D01*
X110475000Y-110187500D02*
X110475000Y-109187500D01*
%TO.C,MX2*%
X48275000Y-77137500D02*
X48275000Y-78137500D01*
X34275000Y-91137500D02*
X34275000Y-90137500D01*
X48275000Y-90137500D02*
X48275000Y-91137500D01*
X47275000Y-77137500D02*
X48275000Y-77137500D01*
X34275000Y-77137500D02*
X35275000Y-77137500D01*
X35275000Y-91137500D02*
X34275000Y-91137500D01*
X48275000Y-91137500D02*
X47275000Y-91137500D01*
X34275000Y-78137500D02*
X34275000Y-77137500D01*
%TO.C,MX11*%
X85375000Y-96187500D02*
X86375000Y-96187500D01*
X86375000Y-110187500D02*
X85375000Y-110187500D01*
X72375000Y-110187500D02*
X72375000Y-109187500D01*
X72375000Y-96187500D02*
X73375000Y-96187500D01*
X72375000Y-97187500D02*
X72375000Y-96187500D01*
X86375000Y-109187500D02*
X86375000Y-110187500D01*
X86375000Y-96187500D02*
X86375000Y-97187500D01*
X73375000Y-110187500D02*
X72375000Y-110187500D01*
%TO.C,MX3*%
X48275000Y-110187500D02*
X47275000Y-110187500D01*
X34275000Y-96187500D02*
X35275000Y-96187500D01*
X47275000Y-96187500D02*
X48275000Y-96187500D01*
X48275000Y-96187500D02*
X48275000Y-97187500D01*
X48275000Y-109187500D02*
X48275000Y-110187500D01*
X34275000Y-97187500D02*
X34275000Y-96187500D01*
X35275000Y-110187500D02*
X34275000Y-110187500D01*
X34275000Y-110187500D02*
X34275000Y-109187500D01*
%TO.C,MX4*%
X35275000Y-129237500D02*
X34275000Y-129237500D01*
X48275000Y-115237500D02*
X48275000Y-116237500D01*
X34275000Y-115237500D02*
X35275000Y-115237500D01*
X47275000Y-115237500D02*
X48275000Y-115237500D01*
X34275000Y-129237500D02*
X34275000Y-128237500D01*
X48275000Y-128237500D02*
X48275000Y-129237500D01*
X34275000Y-116237500D02*
X34275000Y-115237500D01*
X48275000Y-129237500D02*
X47275000Y-129237500D01*
%TO.C,MX14*%
X92425000Y-91137500D02*
X91425000Y-91137500D01*
X91425000Y-77137500D02*
X92425000Y-77137500D01*
X105425000Y-77137500D02*
X105425000Y-78137500D01*
X105425000Y-91137500D02*
X104425000Y-91137500D01*
X104425000Y-77137500D02*
X105425000Y-77137500D01*
X91425000Y-78137500D02*
X91425000Y-77137500D01*
X91425000Y-91137500D02*
X91425000Y-90137500D01*
X105425000Y-90137500D02*
X105425000Y-91137500D01*
%TO.C,MX17*%
X124475000Y-71087500D02*
X124475000Y-72087500D01*
X110475000Y-58087500D02*
X111475000Y-58087500D01*
X110475000Y-72087500D02*
X110475000Y-71087500D01*
X110475000Y-59087500D02*
X110475000Y-58087500D01*
X124475000Y-58087500D02*
X124475000Y-59087500D01*
X111475000Y-72087500D02*
X110475000Y-72087500D01*
X123475000Y-58087500D02*
X124475000Y-58087500D01*
X124475000Y-72087500D02*
X123475000Y-72087500D01*
%TO.C,MX9*%
X86375000Y-71087500D02*
X86375000Y-72087500D01*
X73375000Y-72087500D02*
X72375000Y-72087500D01*
X86375000Y-72087500D02*
X85375000Y-72087500D01*
X72375000Y-59087500D02*
X72375000Y-58087500D01*
X72375000Y-58087500D02*
X73375000Y-58087500D01*
X86375000Y-58087500D02*
X86375000Y-59087500D01*
X72375000Y-72087500D02*
X72375000Y-71087500D01*
X85375000Y-58087500D02*
X86375000Y-58087500D01*
%TO.C,MX12*%
X72375000Y-129237500D02*
X72375000Y-128237500D01*
X86375000Y-128237500D02*
X86375000Y-129237500D01*
X86375000Y-129237500D02*
X85375000Y-129237500D01*
X73375000Y-129237500D02*
X72375000Y-129237500D01*
X86375000Y-115237500D02*
X86375000Y-116237500D01*
X85375000Y-115237500D02*
X86375000Y-115237500D01*
X72375000Y-115237500D02*
X73375000Y-115237500D01*
X72375000Y-116237500D02*
X72375000Y-115237500D01*
%TO.C,MX8*%
X67325000Y-129237500D02*
X66325000Y-129237500D01*
X53325000Y-116237500D02*
X53325000Y-115237500D01*
X53325000Y-115237500D02*
X54325000Y-115237500D01*
X66325000Y-115237500D02*
X67325000Y-115237500D01*
X67325000Y-128237500D02*
X67325000Y-129237500D01*
X67325000Y-115237500D02*
X67325000Y-116237500D01*
X53325000Y-129237500D02*
X53325000Y-128237500D01*
X54325000Y-129237500D02*
X53325000Y-129237500D01*
%TO.C,MX6*%
X53325000Y-78137500D02*
X53325000Y-77137500D01*
X67325000Y-90137500D02*
X67325000Y-91137500D01*
X66325000Y-77137500D02*
X67325000Y-77137500D01*
X67325000Y-91137500D02*
X66325000Y-91137500D01*
X53325000Y-77137500D02*
X54325000Y-77137500D01*
X54325000Y-91137500D02*
X53325000Y-91137500D01*
X53325000Y-91137500D02*
X53325000Y-90137500D01*
X67325000Y-77137500D02*
X67325000Y-78137500D01*
%TO.C,MX10*%
X86375000Y-90137500D02*
X86375000Y-91137500D01*
X72375000Y-77137500D02*
X73375000Y-77137500D01*
X73375000Y-91137500D02*
X72375000Y-91137500D01*
X86375000Y-91137500D02*
X85375000Y-91137500D01*
X86375000Y-77137500D02*
X86375000Y-78137500D01*
X72375000Y-91137500D02*
X72375000Y-90137500D01*
X72375000Y-78137500D02*
X72375000Y-77137500D01*
X85375000Y-77137500D02*
X86375000Y-77137500D01*
%TO.C,MX5*%
X53325000Y-59087500D02*
X53325000Y-58087500D01*
X67325000Y-58087500D02*
X67325000Y-59087500D01*
X67325000Y-71087500D02*
X67325000Y-72087500D01*
X54325000Y-72087500D02*
X53325000Y-72087500D01*
X66325000Y-58087500D02*
X67325000Y-58087500D01*
X67325000Y-72087500D02*
X66325000Y-72087500D01*
X53325000Y-72087500D02*
X53325000Y-71087500D01*
X53325000Y-58087500D02*
X54325000Y-58087500D01*
%TO.C,MX18*%
X110475000Y-77137500D02*
X111475000Y-77137500D01*
X111475000Y-91137500D02*
X110475000Y-91137500D01*
X124475000Y-91137500D02*
X123475000Y-91137500D01*
X110475000Y-78137500D02*
X110475000Y-77137500D01*
X124475000Y-77137500D02*
X124475000Y-78137500D01*
X123475000Y-77137500D02*
X124475000Y-77137500D01*
X124475000Y-90137500D02*
X124475000Y-91137500D01*
X110475000Y-91137500D02*
X110475000Y-90137500D01*
%TO.C,MX7*%
X67325000Y-109187500D02*
X67325000Y-110187500D01*
X53325000Y-97187500D02*
X53325000Y-96187500D01*
X54325000Y-110187500D02*
X53325000Y-110187500D01*
X53325000Y-110187500D02*
X53325000Y-109187500D01*
X67325000Y-96187500D02*
X67325000Y-97187500D01*
X66325000Y-96187500D02*
X67325000Y-96187500D01*
X53325000Y-96187500D02*
X54325000Y-96187500D01*
X67325000Y-110187500D02*
X66325000Y-110187500D01*
%TO.C,MX1*%
X47275000Y-58087500D02*
X48275000Y-58087500D01*
X34275000Y-58087500D02*
X35275000Y-58087500D01*
X48275000Y-72087500D02*
X47275000Y-72087500D01*
X48275000Y-71087500D02*
X48275000Y-72087500D01*
X34275000Y-59087500D02*
X34275000Y-58087500D01*
X34275000Y-72087500D02*
X34275000Y-71087500D01*
X35275000Y-72087500D02*
X34275000Y-72087500D01*
X48275000Y-58087500D02*
X48275000Y-59087500D01*
%TO.C,MX21*%
X114950000Y-115237500D02*
X114950000Y-116237500D01*
X100950000Y-116237500D02*
X100950000Y-115237500D01*
X114950000Y-128237500D02*
X114950000Y-129237500D01*
X100950000Y-129237500D02*
X100950000Y-128237500D01*
X113950000Y-115237500D02*
X114950000Y-115237500D01*
X101950000Y-129237500D02*
X100950000Y-129237500D01*
X100950000Y-115237500D02*
X101950000Y-115237500D01*
X114950000Y-129237500D02*
X113950000Y-129237500D01*
D12*
%TO.C,U1*%
X53975000Y-57785000D02*
X51435000Y-57785000D01*
X69215000Y-88265000D02*
X69215000Y-57785000D01*
X51435000Y-57785000D02*
X51435000Y-88265000D01*
X69215000Y-55245000D02*
X51435000Y-55245000D01*
X51435000Y-88265000D02*
X69215000Y-88265000D01*
X69215000Y-57785000D02*
X69215000Y-55245000D01*
X51435000Y-55245000D02*
X51435000Y-57785000D01*
X53975000Y-60325000D02*
X51435000Y-60325000D01*
X53975000Y-57785000D02*
X53975000Y-60325000D01*
D11*
X65256568Y-63664360D02*
X65256568Y-63764360D01*
X65256568Y-63764360D02*
X64756568Y-63764360D01*
X64756568Y-63764360D02*
X64756568Y-63664360D01*
X64756568Y-63664360D02*
X65256568Y-63664360D01*
G36*
X65256568Y-63764360D02*
G01*
X64756568Y-63764360D01*
X64756568Y-63664360D01*
X65256568Y-63664360D01*
X65256568Y-63764360D01*
G37*
X65256568Y-63764360D02*
X64756568Y-63764360D01*
X64756568Y-63664360D01*
X65256568Y-63664360D01*
X65256568Y-63764360D01*
X65056568Y-64064360D02*
X65056568Y-64164360D01*
X65056568Y-64164360D02*
X64956568Y-64164360D01*
X64956568Y-64164360D02*
X64956568Y-64064360D01*
X64956568Y-64064360D02*
X65056568Y-64064360D01*
G36*
X65056568Y-64164360D02*
G01*
X64956568Y-64164360D01*
X64956568Y-64064360D01*
X65056568Y-64064360D01*
X65056568Y-64164360D01*
G37*
X65056568Y-64164360D02*
X64956568Y-64164360D01*
X64956568Y-64064360D01*
X65056568Y-64064360D01*
X65056568Y-64164360D01*
X65256568Y-64264360D02*
X65256568Y-64464360D01*
X65256568Y-64464360D02*
X65156568Y-64464360D01*
X65156568Y-64464360D02*
X65156568Y-64264360D01*
X65156568Y-64264360D02*
X65256568Y-64264360D01*
G36*
X65256568Y-64464360D02*
G01*
X65156568Y-64464360D01*
X65156568Y-64264360D01*
X65256568Y-64264360D01*
X65256568Y-64464360D01*
G37*
X65256568Y-64464360D02*
X65156568Y-64464360D01*
X65156568Y-64264360D01*
X65256568Y-64264360D01*
X65256568Y-64464360D01*
X64856568Y-63664360D02*
X64856568Y-64464360D01*
X64856568Y-64464360D02*
X64756568Y-64464360D01*
X64756568Y-64464360D02*
X64756568Y-63664360D01*
X64756568Y-63664360D02*
X64856568Y-63664360D01*
G36*
X64856568Y-64464360D02*
G01*
X64756568Y-64464360D01*
X64756568Y-63664360D01*
X64856568Y-63664360D01*
X64856568Y-64464360D01*
G37*
X64856568Y-64464360D02*
X64756568Y-64464360D01*
X64756568Y-63664360D01*
X64856568Y-63664360D01*
X64856568Y-64464360D01*
X65256568Y-63664360D02*
X65256568Y-63964360D01*
X65256568Y-63964360D02*
X65156568Y-63964360D01*
X65156568Y-63964360D02*
X65156568Y-63664360D01*
X65156568Y-63664360D02*
X65256568Y-63664360D01*
G36*
X65256568Y-63964360D02*
G01*
X65156568Y-63964360D01*
X65156568Y-63664360D01*
X65256568Y-63664360D01*
X65256568Y-63964360D01*
G37*
X65256568Y-63964360D02*
X65156568Y-63964360D01*
X65156568Y-63664360D01*
X65256568Y-63664360D01*
X65256568Y-63964360D01*
%TO.C,MX13*%
X91425000Y-72087500D02*
X91425000Y-71087500D01*
X104425000Y-58087500D02*
X105425000Y-58087500D01*
X105425000Y-71087500D02*
X105425000Y-72087500D01*
X105425000Y-72087500D02*
X104425000Y-72087500D01*
X92425000Y-72087500D02*
X91425000Y-72087500D01*
X91425000Y-59087500D02*
X91425000Y-58087500D01*
X91425000Y-58087500D02*
X92425000Y-58087500D01*
X105425000Y-58087500D02*
X105425000Y-59087500D01*
%TD*%
D13*
%TO.C,H2*%
X107950000Y-112712500D03*
%TD*%
%TO.C,H4*%
X107950000Y-74612500D03*
%TD*%
%TO.C,H3*%
X41275000Y-112712500D03*
%TD*%
D14*
%TO.C,U1*%
X52705000Y-59055000D03*
D15*
X52705000Y-61595000D03*
X52705000Y-64135000D03*
X52705000Y-66675000D03*
X52705000Y-69215000D03*
X52705000Y-71755000D03*
X52705000Y-74295000D03*
X52705000Y-76835000D03*
X52705000Y-79375000D03*
X52705000Y-81915000D03*
X52705000Y-84455000D03*
X52705000Y-86995000D03*
X67945000Y-86995000D03*
X67945000Y-84455000D03*
X67945000Y-81915000D03*
X67945000Y-79375000D03*
X67945000Y-76835000D03*
X67945000Y-74295000D03*
X67945000Y-71755000D03*
X67945000Y-69215000D03*
X67945000Y-66675000D03*
X67945000Y-64135000D03*
X67945000Y-61595000D03*
X67945000Y-59055000D03*
%TD*%
D13*
%TO.C,H1*%
X41275000Y-74612500D03*
%TD*%
M02*
