%TF.GenerationSoftware,KiCad,Pcbnew,5.99.0-1.20211029git63d4d84.fc34*%
%TF.CreationDate,2021-10-30T18:32:49+11:00*%
%TF.ProjectId,peppermint,70657070-6572-46d6-996e-742e6b696361,rev?*%
%TF.SameCoordinates,Original*%
%TF.FileFunction,Paste,Top*%
%TF.FilePolarity,Positive*%
%FSLAX46Y46*%
G04 Gerber Fmt 4.6, Leading zero omitted, Abs format (unit mm)*
G04 Created by KiCad (PCBNEW 5.99.0-1.20211029git63d4d84.fc34) date 2021-10-30 18:32:49*
%MOMM*%
%LPD*%
G01*
G04 APERTURE LIST*
%ADD10R,1.200000X1.600000*%
%ADD11R,1.600000X1.200000*%
G04 APERTURE END LIST*
D10*
%TO.C,D4*%
X49212500Y-123637500D03*
X49212500Y-120837500D03*
%TD*%
%TO.C,D5*%
X49212500Y-66487500D03*
X49212500Y-63687500D03*
%TD*%
%TO.C,D8*%
X52387500Y-123637500D03*
X52387500Y-120837500D03*
%TD*%
%TO.C,D12*%
X87312500Y-123637500D03*
X87312500Y-120837500D03*
%TD*%
%TO.C,D7*%
X52387500Y-104587500D03*
X52387500Y-101787500D03*
%TD*%
D11*
%TO.C,D20*%
X95625000Y-127793750D03*
X98425000Y-127793750D03*
%TD*%
D10*
%TO.C,D9*%
X87312500Y-66487500D03*
X87312500Y-63687500D03*
%TD*%
%TO.C,D10*%
X87312500Y-85537500D03*
X87312500Y-82737500D03*
%TD*%
%TO.C,D3*%
X49212500Y-104587500D03*
X49212500Y-101787500D03*
%TD*%
%TO.C,D16*%
X90487500Y-123637500D03*
X90487500Y-120837500D03*
%TD*%
%TO.C,D6*%
X49212500Y-85537500D03*
X49212500Y-82737500D03*
%TD*%
%TO.C,D14*%
X90487500Y-85537500D03*
X90487500Y-82737500D03*
%TD*%
D11*
%TO.C,D18*%
X116075000Y-91281250D03*
X118875000Y-91281250D03*
%TD*%
%TO.C,D19*%
X116075000Y-110331250D03*
X118875000Y-110331250D03*
%TD*%
%TO.C,D17*%
X116075000Y-72231250D03*
X118875000Y-72231250D03*
%TD*%
D10*
%TO.C,D11*%
X87312500Y-104587500D03*
X87312500Y-101787500D03*
%TD*%
%TO.C,D15*%
X90487500Y-104587500D03*
X90487500Y-101787500D03*
%TD*%
D11*
%TO.C,D1*%
X42862500Y-70643750D03*
X40062500Y-70643750D03*
%TD*%
%TO.C,D2*%
X42675000Y-91281250D03*
X39875000Y-91281250D03*
%TD*%
D10*
%TO.C,D13*%
X90487500Y-66487500D03*
X90487500Y-63687500D03*
%TD*%
M02*
