M48
; DRILL file {KiCad 5.99.0-1.20211029git63d4d84.fc34} date Sat 30 Oct 2021 18:32:27
; FORMAT={-:-/ absolute / metric / decimal}
; #@! TF.CreationDate,2021-10-30T18:32:27+11:00
; #@! TF.GenerationSoftware,Kicad,Pcbnew,5.99.0-1.20211029git63d4d84.fc34
; #@! TF.FileFunction,Plated,1,2,PTH
FMAT,2
METRIC
; #@! TA.AperFunction,Plated,PTH,ViaDrill
T1C0.400
; #@! TA.AperFunction,Plated,PTH,ComponentDrill
T2C0.900
; #@! TA.AperFunction,Plated,PTH,ComponentDrill
T3C1.000
; #@! TA.AperFunction,Plated,PTH,ComponentDrill
T4C1.092
; #@! TA.AperFunction,Plated,PTH,ComponentDrill
T5C1.499
; #@! TA.AperFunction,Plated,PTH,ComponentDrill
T6C3.200
%
G90
G05
T1
X50.8Y-59.531
X54.769Y-79.375
X55.562Y-71.438
X60.325Y-57.944
X60.325Y-71.438
X63.5Y-57.944
X70.263Y-90.524
X70.644Y-70.644
X70.644Y-72.231
X70.712Y-107.087
X71.438Y-68.263
X72.231Y-71.438
X78.581Y-71.438
X80.962Y-70.644
X87.312Y-90.524
X90.487Y-90.524
X102.394Y-70.644
X117.475Y-88.106
T3
X37.375Y-91.281
X37.562Y-70.644
X45.175Y-91.281
X45.362Y-70.644
X49.212Y-61.188
X49.212Y-68.987
X49.212Y-80.237
X49.212Y-88.037
X49.212Y-99.287
X49.212Y-107.087
X49.212Y-118.337
X49.212Y-126.137
X52.387Y-99.287
X52.387Y-107.087
X52.387Y-118.337
X52.387Y-126.137
X87.312Y-61.188
X87.312Y-68.987
X87.312Y-80.237
X87.312Y-88.037
X87.312Y-99.287
X87.312Y-107.087
X87.312Y-118.337
X87.312Y-126.137
X90.487Y-61.188
X90.487Y-68.987
X90.487Y-80.237
X90.487Y-88.037
X90.487Y-99.287
X90.487Y-107.087
X90.487Y-118.337
X90.487Y-126.137
X93.125Y-127.794
X100.925Y-127.794
X113.575Y-72.231
X113.575Y-91.281
X113.575Y-110.331
X121.375Y-72.231
X121.375Y-91.281
X121.375Y-110.331
T4
X52.705Y-59.055
X52.705Y-61.595
X52.705Y-64.135
X52.705Y-66.675
X52.705Y-69.215
X52.705Y-71.755
X52.705Y-74.295
X52.705Y-76.835
X52.705Y-79.375
X52.705Y-81.915
X52.705Y-84.455
X52.705Y-86.995
X67.945Y-59.055
X67.945Y-61.595
X67.945Y-64.135
X67.945Y-66.675
X67.945Y-69.215
X67.945Y-71.755
X67.945Y-74.295
X67.945Y-76.835
X67.945Y-79.375
X67.945Y-81.915
X67.945Y-84.455
X67.945Y-86.995
T5
X37.465Y-62.547
X37.465Y-81.597
X37.465Y-100.647
X37.465Y-119.697
X38.735Y-60.008
X38.735Y-79.057
X38.735Y-98.108
X38.735Y-117.157
X43.815Y-60.008
X43.815Y-79.057
X43.815Y-98.108
X43.815Y-117.157
X45.085Y-62.547
X45.085Y-81.597
X45.085Y-100.647
X45.085Y-119.697
X56.515Y-62.547
X56.515Y-81.597
X56.515Y-100.647
X56.515Y-119.697
X57.785Y-60.008
X57.785Y-79.057
X57.785Y-98.108
X57.785Y-117.157
X62.865Y-60.008
X62.865Y-79.057
X62.865Y-98.108
X62.865Y-117.157
X64.135Y-62.547
X64.135Y-81.597
X64.135Y-100.647
X64.135Y-119.697
X75.565Y-62.547
X75.565Y-81.597
X75.565Y-100.647
X75.565Y-119.697
X76.835Y-60.008
X76.835Y-79.057
X76.835Y-98.108
X76.835Y-117.157
X81.915Y-60.008
X81.915Y-79.057
X81.915Y-98.108
X81.915Y-117.157
X83.185Y-62.547
X83.185Y-81.597
X83.185Y-100.647
X83.185Y-119.697
X94.615Y-62.547
X94.615Y-81.597
X94.615Y-100.647
X94.615Y-119.697
X95.885Y-60.008
X95.885Y-79.057
X95.885Y-98.108
X95.885Y-117.157
X100.965Y-60.008
X100.965Y-79.057
X100.965Y-98.108
X100.965Y-117.157
X102.235Y-62.547
X102.235Y-81.597
X102.235Y-100.647
X102.235Y-119.697
X104.14Y-124.777
X105.41Y-127.317
X110.49Y-127.317
X111.76Y-124.777
X113.665Y-62.547
X113.665Y-81.597
X113.665Y-100.647
X113.665Y-119.697
X114.935Y-60.008
X114.935Y-79.057
X114.935Y-98.108
X114.935Y-117.157
X120.015Y-60.008
X120.015Y-79.057
X120.015Y-98.108
X120.015Y-117.157
X121.285Y-62.547
X121.285Y-81.597
X121.285Y-100.647
X121.285Y-119.697
T6
X41.275Y-74.612
X41.275Y-112.712
X107.95Y-74.612
X107.95Y-112.712
T2
G00X104.299Y-60.317
M15
G01X104.299Y-59.917
M16
G05
G00X104.299Y-63.317
M15
G01X104.299Y-62.917
M16
G05
G00X104.299Y-67.317
M15
G01X104.299Y-66.918
M16
G05
G00X106.68Y-67.968
M15
G01X106.68Y-68.367
M16
G05
G00X108.899Y-68.418
M15
G01X108.899Y-68.017
M16
G05
G00X111.28Y-59.867
M15
G01X111.28Y-60.267
M16
G05
G00X111.28Y-62.867
M15
G01X111.28Y-63.267
M16
G05
G00X111.28Y-66.867
M15
G01X111.28Y-67.267
M16
G05
T0
M30
