M48
; DRILL file {KiCad 5.99.0-1.20211029git63d4d84.fc34} date Sat 30 Oct 2021 18:32:27
; FORMAT={-:-/ absolute / metric / decimal}
; #@! TF.CreationDate,2021-10-30T18:32:27+11:00
; #@! TF.GenerationSoftware,Kicad,Pcbnew,5.99.0-1.20211029git63d4d84.fc34
; #@! TF.FileFunction,NonPlated,1,2,NPTH
FMAT,2
METRIC
; #@! TA.AperFunction,NonPlated,NPTH,ComponentDrill
T1C0.800
; #@! TA.AperFunction,NonPlated,NPTH,ComponentDrill
T2C3.988
%
G90
G05
T1
X106.599Y-58.517
X106.599Y-65.517
X108.98Y-58.467
X108.98Y-65.468
T2
X41.275Y-65.087
X41.275Y-84.138
X41.275Y-103.188
X41.275Y-122.237
X60.325Y-65.087
X60.325Y-84.138
X60.325Y-103.188
X60.325Y-122.237
X79.375Y-65.087
X79.375Y-84.138
X79.375Y-103.188
X79.375Y-122.237
X98.425Y-65.087
X98.425Y-84.138
X98.425Y-103.188
X98.425Y-122.237
X107.95Y-122.237
X117.475Y-65.087
X117.475Y-84.138
X117.475Y-103.188
X117.475Y-122.237
T0
M30
