%TF.GenerationSoftware,KiCad,Pcbnew,5.99.0-1.20211029git63d4d84.fc34*%
%TF.CreationDate,2021-10-30T18:32:49+11:00*%
%TF.ProjectId,peppermint,70657070-6572-46d6-996e-742e6b696361,rev?*%
%TF.SameCoordinates,Original*%
%TF.FileFunction,Legend,Bot*%
%TF.FilePolarity,Positive*%
%FSLAX46Y46*%
G04 Gerber Fmt 4.6, Leading zero omitted, Abs format (unit mm)*
G04 Created by KiCad (PCBNEW 5.99.0-1.20211029git63d4d84.fc34) date 2021-10-30 18:32:49*
%MOMM*%
%LPD*%
G01*
G04 APERTURE LIST*
%ADD10C,0.250000*%
%ADD11C,0.150000*%
%ADD12C,0.381000*%
%ADD13C,0.120000*%
%ADD14R,1.752600X1.752600*%
%ADD15C,1.752600*%
%ADD16R,1.600000X1.600000*%
%ADD17C,1.600000*%
G04 APERTURE END LIST*
D10*
X64921830Y-90947194D02*
X64921830Y-92947194D01*
X64921830Y-91042432D02*
X64826592Y-90947194D01*
X64636116Y-90947194D01*
X64540878Y-91042432D01*
X64493259Y-91137670D01*
X64445639Y-91328146D01*
X64445639Y-91899575D01*
X64493259Y-92090051D01*
X64540878Y-92185289D01*
X64636116Y-92280527D01*
X64826592Y-92280527D01*
X64921830Y-92185289D01*
X63636116Y-92185289D02*
X63731354Y-92280527D01*
X63921830Y-92280527D01*
X64017068Y-92185289D01*
X64064687Y-91994813D01*
X64064687Y-91232908D01*
X64017068Y-91042432D01*
X63921830Y-90947194D01*
X63731354Y-90947194D01*
X63636116Y-91042432D01*
X63588497Y-91232908D01*
X63588497Y-91423385D01*
X64064687Y-91613861D01*
X63159925Y-90947194D02*
X63159925Y-92947194D01*
X63159925Y-91042432D02*
X63064687Y-90947194D01*
X62874211Y-90947194D01*
X62778973Y-91042432D01*
X62731354Y-91137670D01*
X62683735Y-91328146D01*
X62683735Y-91899575D01*
X62731354Y-92090051D01*
X62778973Y-92185289D01*
X62874211Y-92280527D01*
X63064687Y-92280527D01*
X63159925Y-92185289D01*
X62255163Y-90947194D02*
X62255163Y-92947194D01*
X62255163Y-91042432D02*
X62159925Y-90947194D01*
X61969449Y-90947194D01*
X61874211Y-91042432D01*
X61826592Y-91137670D01*
X61778973Y-91328146D01*
X61778973Y-91899575D01*
X61826592Y-92090051D01*
X61874211Y-92185289D01*
X61969449Y-92280527D01*
X62159925Y-92280527D01*
X62255163Y-92185289D01*
X60969449Y-92185289D02*
X61064687Y-92280527D01*
X61255163Y-92280527D01*
X61350401Y-92185289D01*
X61398020Y-91994813D01*
X61398020Y-91232908D01*
X61350401Y-91042432D01*
X61255163Y-90947194D01*
X61064687Y-90947194D01*
X60969449Y-91042432D01*
X60921830Y-91232908D01*
X60921830Y-91423385D01*
X61398020Y-91613861D01*
X60493259Y-92280527D02*
X60493259Y-90947194D01*
X60493259Y-91328146D02*
X60445639Y-91137670D01*
X60398020Y-91042432D01*
X60302782Y-90947194D01*
X60207544Y-90947194D01*
X59874211Y-92280527D02*
X59874211Y-90947194D01*
X59874211Y-91137670D02*
X59826592Y-91042432D01*
X59731354Y-90947194D01*
X59588497Y-90947194D01*
X59493259Y-91042432D01*
X59445639Y-91232908D01*
X59445639Y-92280527D01*
X59445639Y-91232908D02*
X59398020Y-91042432D01*
X59302782Y-90947194D01*
X59159925Y-90947194D01*
X59064687Y-91042432D01*
X59017068Y-91232908D01*
X59017068Y-92280527D01*
X58540878Y-92280527D02*
X58540878Y-90947194D01*
X58540878Y-90280527D02*
X58588497Y-90375766D01*
X58540878Y-90471004D01*
X58493259Y-90375766D01*
X58540878Y-90280527D01*
X58540878Y-90471004D01*
X58064687Y-90947194D02*
X58064687Y-92280527D01*
X58064687Y-91137670D02*
X58017068Y-91042432D01*
X57921830Y-90947194D01*
X57778973Y-90947194D01*
X57683735Y-91042432D01*
X57636116Y-91232908D01*
X57636116Y-92280527D01*
X57302782Y-90947194D02*
X56921830Y-90947194D01*
X57159925Y-90280527D02*
X57159925Y-91994813D01*
X57112306Y-92185289D01*
X57017068Y-92280527D01*
X56921830Y-92280527D01*
X64517068Y-95500527D02*
X64517068Y-93500527D01*
X64517068Y-94262432D02*
X64421830Y-94167194D01*
X64231354Y-94167194D01*
X64136116Y-94262432D01*
X64088497Y-94357670D01*
X64040878Y-94548146D01*
X64040878Y-95119575D01*
X64088497Y-95310051D01*
X64136116Y-95405289D01*
X64231354Y-95500527D01*
X64421830Y-95500527D01*
X64517068Y-95405289D01*
X63707544Y-94167194D02*
X63469449Y-95500527D01*
X63231354Y-94167194D02*
X63469449Y-95500527D01*
X63564687Y-95976718D01*
X63612306Y-96071956D01*
X63707544Y-96167194D01*
X62088497Y-95500527D02*
X62088497Y-94167194D01*
X62088497Y-94548146D02*
X62040878Y-94357670D01*
X61993259Y-94262432D01*
X61898020Y-94167194D01*
X61802782Y-94167194D01*
X61040878Y-94167194D02*
X61040878Y-96167194D01*
X61040878Y-95405289D02*
X61136116Y-95500527D01*
X61326592Y-95500527D01*
X61421830Y-95405289D01*
X61469449Y-95310051D01*
X61517068Y-95119575D01*
X61517068Y-94548146D01*
X61469449Y-94357670D01*
X61421830Y-94262432D01*
X61326592Y-94167194D01*
X61136116Y-94167194D01*
X61040878Y-94262432D01*
X60136116Y-95405289D02*
X60231354Y-95500527D01*
X60421830Y-95500527D01*
X60517068Y-95405289D01*
X60564687Y-95310051D01*
X60612306Y-95119575D01*
X60612306Y-94548146D01*
X60564687Y-94357670D01*
X60517068Y-94262432D01*
X60421830Y-94167194D01*
X60231354Y-94167194D01*
X60136116Y-94262432D01*
X59564687Y-95500527D02*
X59659925Y-95405289D01*
X59707544Y-95310051D01*
X59755163Y-95119575D01*
X59755163Y-94548146D01*
X59707544Y-94357670D01*
X59659925Y-94262432D01*
X59564687Y-94167194D01*
X59421830Y-94167194D01*
X59326592Y-94262432D01*
X59278973Y-94357670D01*
X59231354Y-94548146D01*
X59231354Y-95119575D01*
X59278973Y-95310051D01*
X59326592Y-95405289D01*
X59421830Y-95500527D01*
X59564687Y-95500527D01*
X58659925Y-95500527D02*
X58755163Y-95405289D01*
X58802782Y-95310051D01*
X58850401Y-95119575D01*
X58850401Y-94548146D01*
X58802782Y-94357670D01*
X58755163Y-94262432D01*
X58659925Y-94167194D01*
X58517068Y-94167194D01*
X58421830Y-94262432D01*
X58374211Y-94357670D01*
X58326592Y-94548146D01*
X58326592Y-95119575D01*
X58374211Y-95310051D01*
X58421830Y-95405289D01*
X58517068Y-95500527D01*
X58659925Y-95500527D01*
X57898020Y-94167194D02*
X57898020Y-95500527D01*
X57898020Y-94357670D02*
X57850401Y-94262432D01*
X57755163Y-94167194D01*
X57612306Y-94167194D01*
X57517068Y-94262432D01*
X57469449Y-94452908D01*
X57469449Y-95500527D01*
D11*
%TO.C,MX20*%
X119236904Y-119641880D02*
X119236904Y-118641880D01*
X118903571Y-119356166D01*
X118570238Y-118641880D01*
X118570238Y-119641880D01*
X118189285Y-118641880D02*
X117522619Y-119641880D01*
X117522619Y-118641880D02*
X118189285Y-119641880D01*
X117189285Y-118737119D02*
X117141666Y-118689500D01*
X117046428Y-118641880D01*
X116808333Y-118641880D01*
X116713095Y-118689500D01*
X116665476Y-118737119D01*
X116617857Y-118832357D01*
X116617857Y-118927595D01*
X116665476Y-119070452D01*
X117236904Y-119641880D01*
X116617857Y-119641880D01*
X115998809Y-118641880D02*
X115903571Y-118641880D01*
X115808333Y-118689500D01*
X115760714Y-118737119D01*
X115713095Y-118832357D01*
X115665476Y-119022833D01*
X115665476Y-119260928D01*
X115713095Y-119451404D01*
X115760714Y-119546642D01*
X115808333Y-119594261D01*
X115903571Y-119641880D01*
X115998809Y-119641880D01*
X116094047Y-119594261D01*
X116141666Y-119546642D01*
X116189285Y-119451404D01*
X116236904Y-119260928D01*
X116236904Y-119022833D01*
X116189285Y-118832357D01*
X116141666Y-118737119D01*
X116094047Y-118689500D01*
X115998809Y-118641880D01*
%TO.C,MX16*%
X100186904Y-119641880D02*
X100186904Y-118641880D01*
X99853571Y-119356166D01*
X99520238Y-118641880D01*
X99520238Y-119641880D01*
X99139285Y-118641880D02*
X98472619Y-119641880D01*
X98472619Y-118641880D02*
X99139285Y-119641880D01*
X97567857Y-119641880D02*
X98139285Y-119641880D01*
X97853571Y-119641880D02*
X97853571Y-118641880D01*
X97948809Y-118784738D01*
X98044047Y-118879976D01*
X98139285Y-118927595D01*
X96710714Y-118641880D02*
X96901190Y-118641880D01*
X96996428Y-118689500D01*
X97044047Y-118737119D01*
X97139285Y-118879976D01*
X97186904Y-119070452D01*
X97186904Y-119451404D01*
X97139285Y-119546642D01*
X97091666Y-119594261D01*
X96996428Y-119641880D01*
X96805952Y-119641880D01*
X96710714Y-119594261D01*
X96663095Y-119546642D01*
X96615476Y-119451404D01*
X96615476Y-119213309D01*
X96663095Y-119118071D01*
X96710714Y-119070452D01*
X96805952Y-119022833D01*
X96996428Y-119022833D01*
X97091666Y-119070452D01*
X97139285Y-119118071D01*
X97186904Y-119213309D01*
%TO.C,MX15*%
X100186904Y-100591880D02*
X100186904Y-99591880D01*
X99853571Y-100306166D01*
X99520238Y-99591880D01*
X99520238Y-100591880D01*
X99139285Y-99591880D02*
X98472619Y-100591880D01*
X98472619Y-99591880D02*
X99139285Y-100591880D01*
X97567857Y-100591880D02*
X98139285Y-100591880D01*
X97853571Y-100591880D02*
X97853571Y-99591880D01*
X97948809Y-99734738D01*
X98044047Y-99829976D01*
X98139285Y-99877595D01*
X96663095Y-99591880D02*
X97139285Y-99591880D01*
X97186904Y-100068071D01*
X97139285Y-100020452D01*
X97044047Y-99972833D01*
X96805952Y-99972833D01*
X96710714Y-100020452D01*
X96663095Y-100068071D01*
X96615476Y-100163309D01*
X96615476Y-100401404D01*
X96663095Y-100496642D01*
X96710714Y-100544261D01*
X96805952Y-100591880D01*
X97044047Y-100591880D01*
X97139285Y-100544261D01*
X97186904Y-100496642D01*
%TO.C,MX19*%
X119236904Y-100591880D02*
X119236904Y-99591880D01*
X118903571Y-100306166D01*
X118570238Y-99591880D01*
X118570238Y-100591880D01*
X118189285Y-99591880D02*
X117522619Y-100591880D01*
X117522619Y-99591880D02*
X118189285Y-100591880D01*
X116617857Y-100591880D02*
X117189285Y-100591880D01*
X116903571Y-100591880D02*
X116903571Y-99591880D01*
X116998809Y-99734738D01*
X117094047Y-99829976D01*
X117189285Y-99877595D01*
X116141666Y-100591880D02*
X115951190Y-100591880D01*
X115855952Y-100544261D01*
X115808333Y-100496642D01*
X115713095Y-100353785D01*
X115665476Y-100163309D01*
X115665476Y-99782357D01*
X115713095Y-99687119D01*
X115760714Y-99639500D01*
X115855952Y-99591880D01*
X116046428Y-99591880D01*
X116141666Y-99639500D01*
X116189285Y-99687119D01*
X116236904Y-99782357D01*
X116236904Y-100020452D01*
X116189285Y-100115690D01*
X116141666Y-100163309D01*
X116046428Y-100210928D01*
X115855952Y-100210928D01*
X115760714Y-100163309D01*
X115713095Y-100115690D01*
X115665476Y-100020452D01*
%TO.C,MX2*%
X42560714Y-81541880D02*
X42560714Y-80541880D01*
X42227380Y-81256166D01*
X41894047Y-80541880D01*
X41894047Y-81541880D01*
X41513095Y-80541880D02*
X40846428Y-81541880D01*
X40846428Y-80541880D02*
X41513095Y-81541880D01*
X40513095Y-80637119D02*
X40465476Y-80589500D01*
X40370238Y-80541880D01*
X40132142Y-80541880D01*
X40036904Y-80589500D01*
X39989285Y-80637119D01*
X39941666Y-80732357D01*
X39941666Y-80827595D01*
X39989285Y-80970452D01*
X40560714Y-81541880D01*
X39941666Y-81541880D01*
%TO.C,MX11*%
X81136904Y-100591880D02*
X81136904Y-99591880D01*
X80803571Y-100306166D01*
X80470238Y-99591880D01*
X80470238Y-100591880D01*
X80089285Y-99591880D02*
X79422619Y-100591880D01*
X79422619Y-99591880D02*
X80089285Y-100591880D01*
X78517857Y-100591880D02*
X79089285Y-100591880D01*
X78803571Y-100591880D02*
X78803571Y-99591880D01*
X78898809Y-99734738D01*
X78994047Y-99829976D01*
X79089285Y-99877595D01*
X77565476Y-100591880D02*
X78136904Y-100591880D01*
X77851190Y-100591880D02*
X77851190Y-99591880D01*
X77946428Y-99734738D01*
X78041666Y-99829976D01*
X78136904Y-99877595D01*
%TO.C,MX3*%
X42560714Y-100591880D02*
X42560714Y-99591880D01*
X42227380Y-100306166D01*
X41894047Y-99591880D01*
X41894047Y-100591880D01*
X41513095Y-99591880D02*
X40846428Y-100591880D01*
X40846428Y-99591880D02*
X41513095Y-100591880D01*
X40560714Y-99591880D02*
X39941666Y-99591880D01*
X40275000Y-99972833D01*
X40132142Y-99972833D01*
X40036904Y-100020452D01*
X39989285Y-100068071D01*
X39941666Y-100163309D01*
X39941666Y-100401404D01*
X39989285Y-100496642D01*
X40036904Y-100544261D01*
X40132142Y-100591880D01*
X40417857Y-100591880D01*
X40513095Y-100544261D01*
X40560714Y-100496642D01*
%TO.C,MX4*%
X42560714Y-119641880D02*
X42560714Y-118641880D01*
X42227380Y-119356166D01*
X41894047Y-118641880D01*
X41894047Y-119641880D01*
X41513095Y-118641880D02*
X40846428Y-119641880D01*
X40846428Y-118641880D02*
X41513095Y-119641880D01*
X40036904Y-118975214D02*
X40036904Y-119641880D01*
X40275000Y-118594261D02*
X40513095Y-119308547D01*
X39894047Y-119308547D01*
%TO.C,MX14*%
X100186904Y-81541880D02*
X100186904Y-80541880D01*
X99853571Y-81256166D01*
X99520238Y-80541880D01*
X99520238Y-81541880D01*
X99139285Y-80541880D02*
X98472619Y-81541880D01*
X98472619Y-80541880D02*
X99139285Y-81541880D01*
X97567857Y-81541880D02*
X98139285Y-81541880D01*
X97853571Y-81541880D02*
X97853571Y-80541880D01*
X97948809Y-80684738D01*
X98044047Y-80779976D01*
X98139285Y-80827595D01*
X96710714Y-80875214D02*
X96710714Y-81541880D01*
X96948809Y-80494261D02*
X97186904Y-81208547D01*
X96567857Y-81208547D01*
%TO.C,MX17*%
X119236904Y-62491880D02*
X119236904Y-61491880D01*
X118903571Y-62206166D01*
X118570238Y-61491880D01*
X118570238Y-62491880D01*
X118189285Y-61491880D02*
X117522619Y-62491880D01*
X117522619Y-61491880D02*
X118189285Y-62491880D01*
X116617857Y-62491880D02*
X117189285Y-62491880D01*
X116903571Y-62491880D02*
X116903571Y-61491880D01*
X116998809Y-61634738D01*
X117094047Y-61729976D01*
X117189285Y-61777595D01*
X116284523Y-61491880D02*
X115617857Y-61491880D01*
X116046428Y-62491880D01*
%TO.C,MX9*%
X80660714Y-62491880D02*
X80660714Y-61491880D01*
X80327380Y-62206166D01*
X79994047Y-61491880D01*
X79994047Y-62491880D01*
X79613095Y-61491880D02*
X78946428Y-62491880D01*
X78946428Y-61491880D02*
X79613095Y-62491880D01*
X78517857Y-62491880D02*
X78327380Y-62491880D01*
X78232142Y-62444261D01*
X78184523Y-62396642D01*
X78089285Y-62253785D01*
X78041666Y-62063309D01*
X78041666Y-61682357D01*
X78089285Y-61587119D01*
X78136904Y-61539500D01*
X78232142Y-61491880D01*
X78422619Y-61491880D01*
X78517857Y-61539500D01*
X78565476Y-61587119D01*
X78613095Y-61682357D01*
X78613095Y-61920452D01*
X78565476Y-62015690D01*
X78517857Y-62063309D01*
X78422619Y-62110928D01*
X78232142Y-62110928D01*
X78136904Y-62063309D01*
X78089285Y-62015690D01*
X78041666Y-61920452D01*
%TO.C,MX12*%
X81136904Y-119641880D02*
X81136904Y-118641880D01*
X80803571Y-119356166D01*
X80470238Y-118641880D01*
X80470238Y-119641880D01*
X80089285Y-118641880D02*
X79422619Y-119641880D01*
X79422619Y-118641880D02*
X80089285Y-119641880D01*
X78517857Y-119641880D02*
X79089285Y-119641880D01*
X78803571Y-119641880D02*
X78803571Y-118641880D01*
X78898809Y-118784738D01*
X78994047Y-118879976D01*
X79089285Y-118927595D01*
X78136904Y-118737119D02*
X78089285Y-118689500D01*
X77994047Y-118641880D01*
X77755952Y-118641880D01*
X77660714Y-118689500D01*
X77613095Y-118737119D01*
X77565476Y-118832357D01*
X77565476Y-118927595D01*
X77613095Y-119070452D01*
X78184523Y-119641880D01*
X77565476Y-119641880D01*
%TO.C,MX8*%
X61610714Y-119641880D02*
X61610714Y-118641880D01*
X61277380Y-119356166D01*
X60944047Y-118641880D01*
X60944047Y-119641880D01*
X60563095Y-118641880D02*
X59896428Y-119641880D01*
X59896428Y-118641880D02*
X60563095Y-119641880D01*
X59372619Y-119070452D02*
X59467857Y-119022833D01*
X59515476Y-118975214D01*
X59563095Y-118879976D01*
X59563095Y-118832357D01*
X59515476Y-118737119D01*
X59467857Y-118689500D01*
X59372619Y-118641880D01*
X59182142Y-118641880D01*
X59086904Y-118689500D01*
X59039285Y-118737119D01*
X58991666Y-118832357D01*
X58991666Y-118879976D01*
X59039285Y-118975214D01*
X59086904Y-119022833D01*
X59182142Y-119070452D01*
X59372619Y-119070452D01*
X59467857Y-119118071D01*
X59515476Y-119165690D01*
X59563095Y-119260928D01*
X59563095Y-119451404D01*
X59515476Y-119546642D01*
X59467857Y-119594261D01*
X59372619Y-119641880D01*
X59182142Y-119641880D01*
X59086904Y-119594261D01*
X59039285Y-119546642D01*
X58991666Y-119451404D01*
X58991666Y-119260928D01*
X59039285Y-119165690D01*
X59086904Y-119118071D01*
X59182142Y-119070452D01*
%TO.C,MX6*%
X61610714Y-81541880D02*
X61610714Y-80541880D01*
X61277380Y-81256166D01*
X60944047Y-80541880D01*
X60944047Y-81541880D01*
X60563095Y-80541880D02*
X59896428Y-81541880D01*
X59896428Y-80541880D02*
X60563095Y-81541880D01*
X59086904Y-80541880D02*
X59277380Y-80541880D01*
X59372619Y-80589500D01*
X59420238Y-80637119D01*
X59515476Y-80779976D01*
X59563095Y-80970452D01*
X59563095Y-81351404D01*
X59515476Y-81446642D01*
X59467857Y-81494261D01*
X59372619Y-81541880D01*
X59182142Y-81541880D01*
X59086904Y-81494261D01*
X59039285Y-81446642D01*
X58991666Y-81351404D01*
X58991666Y-81113309D01*
X59039285Y-81018071D01*
X59086904Y-80970452D01*
X59182142Y-80922833D01*
X59372619Y-80922833D01*
X59467857Y-80970452D01*
X59515476Y-81018071D01*
X59563095Y-81113309D01*
%TO.C,MX10*%
X81136904Y-81541880D02*
X81136904Y-80541880D01*
X80803571Y-81256166D01*
X80470238Y-80541880D01*
X80470238Y-81541880D01*
X80089285Y-80541880D02*
X79422619Y-81541880D01*
X79422619Y-80541880D02*
X80089285Y-81541880D01*
X78517857Y-81541880D02*
X79089285Y-81541880D01*
X78803571Y-81541880D02*
X78803571Y-80541880D01*
X78898809Y-80684738D01*
X78994047Y-80779976D01*
X79089285Y-80827595D01*
X77898809Y-80541880D02*
X77803571Y-80541880D01*
X77708333Y-80589500D01*
X77660714Y-80637119D01*
X77613095Y-80732357D01*
X77565476Y-80922833D01*
X77565476Y-81160928D01*
X77613095Y-81351404D01*
X77660714Y-81446642D01*
X77708333Y-81494261D01*
X77803571Y-81541880D01*
X77898809Y-81541880D01*
X77994047Y-81494261D01*
X78041666Y-81446642D01*
X78089285Y-81351404D01*
X78136904Y-81160928D01*
X78136904Y-80922833D01*
X78089285Y-80732357D01*
X78041666Y-80637119D01*
X77994047Y-80589500D01*
X77898809Y-80541880D01*
%TO.C,MX5*%
X61610714Y-62491880D02*
X61610714Y-61491880D01*
X61277380Y-62206166D01*
X60944047Y-61491880D01*
X60944047Y-62491880D01*
X60563095Y-61491880D02*
X59896428Y-62491880D01*
X59896428Y-61491880D02*
X60563095Y-62491880D01*
X59039285Y-61491880D02*
X59515476Y-61491880D01*
X59563095Y-61968071D01*
X59515476Y-61920452D01*
X59420238Y-61872833D01*
X59182142Y-61872833D01*
X59086904Y-61920452D01*
X59039285Y-61968071D01*
X58991666Y-62063309D01*
X58991666Y-62301404D01*
X59039285Y-62396642D01*
X59086904Y-62444261D01*
X59182142Y-62491880D01*
X59420238Y-62491880D01*
X59515476Y-62444261D01*
X59563095Y-62396642D01*
%TO.C,MX18*%
X119236904Y-81541880D02*
X119236904Y-80541880D01*
X118903571Y-81256166D01*
X118570238Y-80541880D01*
X118570238Y-81541880D01*
X118189285Y-80541880D02*
X117522619Y-81541880D01*
X117522619Y-80541880D02*
X118189285Y-81541880D01*
X116617857Y-81541880D02*
X117189285Y-81541880D01*
X116903571Y-81541880D02*
X116903571Y-80541880D01*
X116998809Y-80684738D01*
X117094047Y-80779976D01*
X117189285Y-80827595D01*
X116046428Y-80970452D02*
X116141666Y-80922833D01*
X116189285Y-80875214D01*
X116236904Y-80779976D01*
X116236904Y-80732357D01*
X116189285Y-80637119D01*
X116141666Y-80589500D01*
X116046428Y-80541880D01*
X115855952Y-80541880D01*
X115760714Y-80589500D01*
X115713095Y-80637119D01*
X115665476Y-80732357D01*
X115665476Y-80779976D01*
X115713095Y-80875214D01*
X115760714Y-80922833D01*
X115855952Y-80970452D01*
X116046428Y-80970452D01*
X116141666Y-81018071D01*
X116189285Y-81065690D01*
X116236904Y-81160928D01*
X116236904Y-81351404D01*
X116189285Y-81446642D01*
X116141666Y-81494261D01*
X116046428Y-81541880D01*
X115855952Y-81541880D01*
X115760714Y-81494261D01*
X115713095Y-81446642D01*
X115665476Y-81351404D01*
X115665476Y-81160928D01*
X115713095Y-81065690D01*
X115760714Y-81018071D01*
X115855952Y-80970452D01*
%TO.C,MX7*%
X61610714Y-100591880D02*
X61610714Y-99591880D01*
X61277380Y-100306166D01*
X60944047Y-99591880D01*
X60944047Y-100591880D01*
X60563095Y-99591880D02*
X59896428Y-100591880D01*
X59896428Y-99591880D02*
X60563095Y-100591880D01*
X59610714Y-99591880D02*
X58944047Y-99591880D01*
X59372619Y-100591880D01*
%TO.C,MX1*%
X42560714Y-62491880D02*
X42560714Y-61491880D01*
X42227380Y-62206166D01*
X41894047Y-61491880D01*
X41894047Y-62491880D01*
X41513095Y-61491880D02*
X40846428Y-62491880D01*
X40846428Y-61491880D02*
X41513095Y-62491880D01*
X39941666Y-62491880D02*
X40513095Y-62491880D01*
X40227380Y-62491880D02*
X40227380Y-61491880D01*
X40322619Y-61634738D01*
X40417857Y-61729976D01*
X40513095Y-61777595D01*
%TO.C,MX21*%
X109711904Y-125737880D02*
X109711904Y-124737880D01*
X109378571Y-125452166D01*
X109045238Y-124737880D01*
X109045238Y-125737880D01*
X108664285Y-124737880D02*
X107997619Y-125737880D01*
X107997619Y-124737880D02*
X108664285Y-125737880D01*
X107664285Y-124833119D02*
X107616666Y-124785500D01*
X107521428Y-124737880D01*
X107283333Y-124737880D01*
X107188095Y-124785500D01*
X107140476Y-124833119D01*
X107092857Y-124928357D01*
X107092857Y-125023595D01*
X107140476Y-125166452D01*
X107711904Y-125737880D01*
X107092857Y-125737880D01*
X106140476Y-125737880D02*
X106711904Y-125737880D01*
X106426190Y-125737880D02*
X106426190Y-124737880D01*
X106521428Y-124880738D01*
X106616666Y-124975976D01*
X106711904Y-125023595D01*
%TO.C,U1*%
X66052666Y-76777857D02*
X66319333Y-76777857D01*
X66319333Y-77196904D02*
X66319333Y-76396904D01*
X65938380Y-76396904D01*
X65709809Y-76396904D02*
X65176476Y-76396904D01*
X65519333Y-77196904D01*
X66109809Y-79317857D02*
X65995523Y-79355952D01*
X65957428Y-79394047D01*
X65919333Y-79470238D01*
X65919333Y-79584523D01*
X65957428Y-79660714D01*
X65995523Y-79698809D01*
X66071714Y-79736904D01*
X66376476Y-79736904D01*
X66376476Y-78936904D01*
X66109809Y-78936904D01*
X66033619Y-78975000D01*
X65995523Y-79013095D01*
X65957428Y-79089285D01*
X65957428Y-79165476D01*
X65995523Y-79241666D01*
X66033619Y-79279761D01*
X66109809Y-79317857D01*
X66376476Y-79317857D01*
X65157428Y-79736904D02*
X65614571Y-79736904D01*
X65386000Y-79736904D02*
X65386000Y-78936904D01*
X65462190Y-79051190D01*
X65538380Y-79127380D01*
X65614571Y-79165476D01*
X66109809Y-86937857D02*
X65995523Y-86975952D01*
X65957428Y-87014047D01*
X65919333Y-87090238D01*
X65919333Y-87204523D01*
X65957428Y-87280714D01*
X65995523Y-87318809D01*
X66071714Y-87356904D01*
X66376476Y-87356904D01*
X66376476Y-86556904D01*
X66109809Y-86556904D01*
X66033619Y-86595000D01*
X65995523Y-86633095D01*
X65957428Y-86709285D01*
X65957428Y-86785476D01*
X65995523Y-86861666D01*
X66033619Y-86899761D01*
X66109809Y-86937857D01*
X66376476Y-86937857D01*
X65233619Y-86556904D02*
X65386000Y-86556904D01*
X65462190Y-86595000D01*
X65500285Y-86633095D01*
X65576476Y-86747380D01*
X65614571Y-86899761D01*
X65614571Y-87204523D01*
X65576476Y-87280714D01*
X65538380Y-87318809D01*
X65462190Y-87356904D01*
X65309809Y-87356904D01*
X65233619Y-87318809D01*
X65195523Y-87280714D01*
X65157428Y-87204523D01*
X65157428Y-87014047D01*
X65195523Y-86937857D01*
X65233619Y-86899761D01*
X65309809Y-86861666D01*
X65462190Y-86861666D01*
X65538380Y-86899761D01*
X65576476Y-86937857D01*
X65614571Y-87014047D01*
X54997333Y-77120714D02*
X55035428Y-77158809D01*
X55149714Y-77196904D01*
X55225904Y-77196904D01*
X55340190Y-77158809D01*
X55416380Y-77082619D01*
X55454476Y-77006428D01*
X55492571Y-76854047D01*
X55492571Y-76739761D01*
X55454476Y-76587380D01*
X55416380Y-76511190D01*
X55340190Y-76435000D01*
X55225904Y-76396904D01*
X55149714Y-76396904D01*
X55035428Y-76435000D01*
X54997333Y-76473095D01*
X54311619Y-76396904D02*
X54464000Y-76396904D01*
X54540190Y-76435000D01*
X54578285Y-76473095D01*
X54654476Y-76587380D01*
X54692571Y-76739761D01*
X54692571Y-77044523D01*
X54654476Y-77120714D01*
X54616380Y-77158809D01*
X54540190Y-77196904D01*
X54387809Y-77196904D01*
X54311619Y-77158809D01*
X54273523Y-77120714D01*
X54235428Y-77044523D01*
X54235428Y-76854047D01*
X54273523Y-76777857D01*
X54311619Y-76739761D01*
X54387809Y-76701666D01*
X54540190Y-76701666D01*
X54616380Y-76739761D01*
X54654476Y-76777857D01*
X54692571Y-76854047D01*
X55454476Y-74656904D02*
X55454476Y-73856904D01*
X55264000Y-73856904D01*
X55149714Y-73895000D01*
X55073523Y-73971190D01*
X55035428Y-74047380D01*
X54997333Y-74199761D01*
X54997333Y-74314047D01*
X55035428Y-74466428D01*
X55073523Y-74542619D01*
X55149714Y-74618809D01*
X55264000Y-74656904D01*
X55454476Y-74656904D01*
X54311619Y-74123571D02*
X54311619Y-74656904D01*
X54502095Y-73818809D02*
X54692571Y-74390238D01*
X54197333Y-74390238D01*
X55454476Y-69576904D02*
X55454476Y-68776904D01*
X55264000Y-68776904D01*
X55149714Y-68815000D01*
X55073523Y-68891190D01*
X55035428Y-68967380D01*
X54997333Y-69119761D01*
X54997333Y-69234047D01*
X55035428Y-69386428D01*
X55073523Y-69462619D01*
X55149714Y-69538809D01*
X55264000Y-69576904D01*
X55454476Y-69576904D01*
X54235428Y-69576904D02*
X54692571Y-69576904D01*
X54464000Y-69576904D02*
X54464000Y-68776904D01*
X54540190Y-68891190D01*
X54616380Y-68967380D01*
X54692571Y-69005476D01*
X55473523Y-63735000D02*
X55549714Y-63696904D01*
X55664000Y-63696904D01*
X55778285Y-63735000D01*
X55854476Y-63811190D01*
X55892571Y-63887380D01*
X55930666Y-64039761D01*
X55930666Y-64154047D01*
X55892571Y-64306428D01*
X55854476Y-64382619D01*
X55778285Y-64458809D01*
X55664000Y-64496904D01*
X55587809Y-64496904D01*
X55473523Y-64458809D01*
X55435428Y-64420714D01*
X55435428Y-64154047D01*
X55587809Y-64154047D01*
X55092571Y-64496904D02*
X55092571Y-63696904D01*
X54635428Y-64496904D01*
X54635428Y-63696904D01*
X54254476Y-64496904D02*
X54254476Y-63696904D01*
X54064000Y-63696904D01*
X53949714Y-63735000D01*
X53873523Y-63811190D01*
X53835428Y-63887380D01*
X53797333Y-64039761D01*
X53797333Y-64154047D01*
X53835428Y-64306428D01*
X53873523Y-64382619D01*
X53949714Y-64458809D01*
X54064000Y-64496904D01*
X54254476Y-64496904D01*
X55454476Y-61956904D02*
X55454476Y-61156904D01*
X55264000Y-61156904D01*
X55149714Y-61195000D01*
X55073523Y-61271190D01*
X55035428Y-61347380D01*
X54997333Y-61499761D01*
X54997333Y-61614047D01*
X55035428Y-61766428D01*
X55073523Y-61842619D01*
X55149714Y-61918809D01*
X55264000Y-61956904D01*
X55454476Y-61956904D01*
X54692571Y-61233095D02*
X54654476Y-61195000D01*
X54578285Y-61156904D01*
X54387809Y-61156904D01*
X54311619Y-61195000D01*
X54273523Y-61233095D01*
X54235428Y-61309285D01*
X54235428Y-61385476D01*
X54273523Y-61499761D01*
X54730666Y-61956904D01*
X54235428Y-61956904D01*
X55187809Y-86937857D02*
X55073523Y-86975952D01*
X55035428Y-87014047D01*
X54997333Y-87090238D01*
X54997333Y-87204523D01*
X55035428Y-87280714D01*
X55073523Y-87318809D01*
X55149714Y-87356904D01*
X55454476Y-87356904D01*
X55454476Y-86556904D01*
X55187809Y-86556904D01*
X55111619Y-86595000D01*
X55073523Y-86633095D01*
X55035428Y-86709285D01*
X55035428Y-86785476D01*
X55073523Y-86861666D01*
X55111619Y-86899761D01*
X55187809Y-86937857D01*
X55454476Y-86937857D01*
X54273523Y-86556904D02*
X54654476Y-86556904D01*
X54692571Y-86937857D01*
X54654476Y-86899761D01*
X54578285Y-86861666D01*
X54387809Y-86861666D01*
X54311619Y-86899761D01*
X54273523Y-86937857D01*
X54235428Y-87014047D01*
X54235428Y-87204523D01*
X54273523Y-87280714D01*
X54311619Y-87318809D01*
X54387809Y-87356904D01*
X54578285Y-87356904D01*
X54654476Y-87318809D01*
X54692571Y-87280714D01*
X55416380Y-81857857D02*
X55149714Y-81857857D01*
X55035428Y-82276904D02*
X55416380Y-82276904D01*
X55416380Y-81476904D01*
X55035428Y-81476904D01*
X54349714Y-81476904D02*
X54502095Y-81476904D01*
X54578285Y-81515000D01*
X54616380Y-81553095D01*
X54692571Y-81667380D01*
X54730666Y-81819761D01*
X54730666Y-82124523D01*
X54692571Y-82200714D01*
X54654476Y-82238809D01*
X54578285Y-82276904D01*
X54425904Y-82276904D01*
X54349714Y-82238809D01*
X54311619Y-82200714D01*
X54273523Y-82124523D01*
X54273523Y-81934047D01*
X54311619Y-81857857D01*
X54349714Y-81819761D01*
X54425904Y-81781666D01*
X54578285Y-81781666D01*
X54654476Y-81819761D01*
X54692571Y-81857857D01*
X54730666Y-81934047D01*
X55454476Y-79736904D02*
X55454476Y-78936904D01*
X55264000Y-78936904D01*
X55149714Y-78975000D01*
X55073523Y-79051190D01*
X55035428Y-79127380D01*
X54997333Y-79279761D01*
X54997333Y-79394047D01*
X55035428Y-79546428D01*
X55073523Y-79622619D01*
X55149714Y-79698809D01*
X55264000Y-79736904D01*
X55454476Y-79736904D01*
X54730666Y-78936904D02*
X54197333Y-78936904D01*
X54540190Y-79736904D01*
X58943604Y-58616904D02*
X58486461Y-58616904D01*
X58715032Y-59416904D02*
X58715032Y-58616904D01*
X58295985Y-58616904D02*
X57762651Y-59416904D01*
X57762651Y-58616904D02*
X58295985Y-59416904D01*
X57305508Y-58616904D02*
X57229318Y-58616904D01*
X57153128Y-58655000D01*
X57115032Y-58693095D01*
X57076937Y-58769285D01*
X57038842Y-58921666D01*
X57038842Y-59112142D01*
X57076937Y-59264523D01*
X57115032Y-59340714D01*
X57153128Y-59378809D01*
X57229318Y-59416904D01*
X57305508Y-59416904D01*
X57381699Y-59378809D01*
X57419794Y-59340714D01*
X57457889Y-59264523D01*
X57495985Y-59112142D01*
X57495985Y-58921666D01*
X57457889Y-58769285D01*
X57419794Y-58693095D01*
X57381699Y-58655000D01*
X57305508Y-58616904D01*
X56124556Y-58578809D02*
X56810270Y-59607380D01*
X55857889Y-59416904D02*
X55857889Y-58616904D01*
X55667413Y-58616904D01*
X55553128Y-58655000D01*
X55476937Y-58731190D01*
X55438842Y-58807380D01*
X55400747Y-58959761D01*
X55400747Y-59074047D01*
X55438842Y-59226428D01*
X55476937Y-59302619D01*
X55553128Y-59378809D01*
X55667413Y-59416904D01*
X55857889Y-59416904D01*
X55134080Y-58616904D02*
X54638842Y-58616904D01*
X54905508Y-58921666D01*
X54791223Y-58921666D01*
X54715032Y-58959761D01*
X54676937Y-58997857D01*
X54638842Y-59074047D01*
X54638842Y-59264523D01*
X54676937Y-59340714D01*
X54715032Y-59378809D01*
X54791223Y-59416904D01*
X55019794Y-59416904D01*
X55095985Y-59378809D01*
X55134080Y-59340714D01*
X55473523Y-66275000D02*
X55549714Y-66236904D01*
X55664000Y-66236904D01*
X55778285Y-66275000D01*
X55854476Y-66351190D01*
X55892571Y-66427380D01*
X55930666Y-66579761D01*
X55930666Y-66694047D01*
X55892571Y-66846428D01*
X55854476Y-66922619D01*
X55778285Y-66998809D01*
X55664000Y-67036904D01*
X55587809Y-67036904D01*
X55473523Y-66998809D01*
X55435428Y-66960714D01*
X55435428Y-66694047D01*
X55587809Y-66694047D01*
X55092571Y-67036904D02*
X55092571Y-66236904D01*
X54635428Y-67036904D01*
X54635428Y-66236904D01*
X54254476Y-67036904D02*
X54254476Y-66236904D01*
X54064000Y-66236904D01*
X53949714Y-66275000D01*
X53873523Y-66351190D01*
X53835428Y-66427380D01*
X53797333Y-66579761D01*
X53797333Y-66694047D01*
X53835428Y-66846428D01*
X53873523Y-66922619D01*
X53949714Y-66998809D01*
X54064000Y-67036904D01*
X54254476Y-67036904D01*
X66052666Y-74237857D02*
X66319333Y-74237857D01*
X66319333Y-74656904D02*
X66319333Y-73856904D01*
X65938380Y-73856904D01*
X65290761Y-73856904D02*
X65443142Y-73856904D01*
X65519333Y-73895000D01*
X65557428Y-73933095D01*
X65633619Y-74047380D01*
X65671714Y-74199761D01*
X65671714Y-74504523D01*
X65633619Y-74580714D01*
X65595523Y-74618809D01*
X65519333Y-74656904D01*
X65366952Y-74656904D01*
X65290761Y-74618809D01*
X65252666Y-74580714D01*
X65214571Y-74504523D01*
X65214571Y-74314047D01*
X65252666Y-74237857D01*
X65290761Y-74199761D01*
X65366952Y-74161666D01*
X65519333Y-74161666D01*
X65595523Y-74199761D01*
X65633619Y-74237857D01*
X65671714Y-74314047D01*
X66338380Y-59416904D02*
X66605047Y-59035952D01*
X66795523Y-59416904D02*
X66795523Y-58616904D01*
X66490761Y-58616904D01*
X66414571Y-58655000D01*
X66376476Y-58693095D01*
X66338380Y-58769285D01*
X66338380Y-58883571D01*
X66376476Y-58959761D01*
X66414571Y-58997857D01*
X66490761Y-59035952D01*
X66795523Y-59035952D01*
X66033619Y-59188333D02*
X65652666Y-59188333D01*
X66109809Y-59416904D02*
X65843142Y-58616904D01*
X65576476Y-59416904D01*
X65386000Y-58616904D02*
X65195523Y-59416904D01*
X65043142Y-58845476D01*
X64890761Y-59416904D01*
X64700285Y-58616904D01*
X66109809Y-84397857D02*
X65995523Y-84435952D01*
X65957428Y-84474047D01*
X65919333Y-84550238D01*
X65919333Y-84664523D01*
X65957428Y-84740714D01*
X65995523Y-84778809D01*
X66071714Y-84816904D01*
X66376476Y-84816904D01*
X66376476Y-84016904D01*
X66109809Y-84016904D01*
X66033619Y-84055000D01*
X65995523Y-84093095D01*
X65957428Y-84169285D01*
X65957428Y-84245476D01*
X65995523Y-84321666D01*
X66033619Y-84359761D01*
X66109809Y-84397857D01*
X66376476Y-84397857D01*
X65614571Y-84093095D02*
X65576476Y-84055000D01*
X65500285Y-84016904D01*
X65309809Y-84016904D01*
X65233619Y-84055000D01*
X65195523Y-84093095D01*
X65157428Y-84169285D01*
X65157428Y-84245476D01*
X65195523Y-84359761D01*
X65652666Y-84816904D01*
X65157428Y-84816904D01*
X65898333Y-64438809D02*
X65784047Y-64476904D01*
X65593571Y-64476904D01*
X65517380Y-64438809D01*
X65479285Y-64400714D01*
X65441190Y-64324523D01*
X65441190Y-64248333D01*
X65479285Y-64172142D01*
X65517380Y-64134047D01*
X65593571Y-64095952D01*
X65745952Y-64057857D01*
X65822142Y-64019761D01*
X65860238Y-63981666D01*
X65898333Y-63905476D01*
X65898333Y-63829285D01*
X65860238Y-63753095D01*
X65822142Y-63715000D01*
X65745952Y-63676904D01*
X65555476Y-63676904D01*
X65441190Y-63715000D01*
X65212619Y-63676904D02*
X64755476Y-63676904D01*
X64984047Y-64476904D02*
X64984047Y-63676904D01*
X66052666Y-69157857D02*
X66319333Y-69157857D01*
X66319333Y-69576904D02*
X66319333Y-68776904D01*
X65938380Y-68776904D01*
X65290761Y-69043571D02*
X65290761Y-69576904D01*
X65481238Y-68738809D02*
X65671714Y-69310238D01*
X65176476Y-69310238D01*
X55454476Y-72116904D02*
X55454476Y-71316904D01*
X55264000Y-71316904D01*
X55149714Y-71355000D01*
X55073523Y-71431190D01*
X55035428Y-71507380D01*
X54997333Y-71659761D01*
X54997333Y-71774047D01*
X55035428Y-71926428D01*
X55073523Y-72002619D01*
X55149714Y-72078809D01*
X55264000Y-72116904D01*
X55454476Y-72116904D01*
X54502095Y-71316904D02*
X54425904Y-71316904D01*
X54349714Y-71355000D01*
X54311619Y-71393095D01*
X54273523Y-71469285D01*
X54235428Y-71621666D01*
X54235428Y-71812142D01*
X54273523Y-71964523D01*
X54311619Y-72040714D01*
X54349714Y-72078809D01*
X54425904Y-72116904D01*
X54502095Y-72116904D01*
X54578285Y-72078809D01*
X54616380Y-72040714D01*
X54654476Y-71964523D01*
X54692571Y-71812142D01*
X54692571Y-71621666D01*
X54654476Y-71469285D01*
X54616380Y-71393095D01*
X54578285Y-71355000D01*
X54502095Y-71316904D01*
X66852666Y-66236904D02*
X66586000Y-67036904D01*
X66319333Y-66236904D01*
X65595523Y-66960714D02*
X65633619Y-66998809D01*
X65747904Y-67036904D01*
X65824095Y-67036904D01*
X65938380Y-66998809D01*
X66014571Y-66922619D01*
X66052666Y-66846428D01*
X66090761Y-66694047D01*
X66090761Y-66579761D01*
X66052666Y-66427380D01*
X66014571Y-66351190D01*
X65938380Y-66275000D01*
X65824095Y-66236904D01*
X65747904Y-66236904D01*
X65633619Y-66275000D01*
X65595523Y-66313095D01*
X64795523Y-66960714D02*
X64833619Y-66998809D01*
X64947904Y-67036904D01*
X65024095Y-67036904D01*
X65138380Y-66998809D01*
X65214571Y-66922619D01*
X65252666Y-66846428D01*
X65290761Y-66694047D01*
X65290761Y-66579761D01*
X65252666Y-66427380D01*
X65214571Y-66351190D01*
X65138380Y-66275000D01*
X65024095Y-66236904D01*
X64947904Y-66236904D01*
X64833619Y-66275000D01*
X64795523Y-66313095D01*
X66052666Y-71697857D02*
X66319333Y-71697857D01*
X66319333Y-72116904D02*
X66319333Y-71316904D01*
X65938380Y-71316904D01*
X65252666Y-71316904D02*
X65633619Y-71316904D01*
X65671714Y-71697857D01*
X65633619Y-71659761D01*
X65557428Y-71621666D01*
X65366952Y-71621666D01*
X65290761Y-71659761D01*
X65252666Y-71697857D01*
X65214571Y-71774047D01*
X65214571Y-71964523D01*
X65252666Y-72040714D01*
X65290761Y-72078809D01*
X65366952Y-72116904D01*
X65557428Y-72116904D01*
X65633619Y-72078809D01*
X65671714Y-72040714D01*
X66395523Y-61195000D02*
X66471714Y-61156904D01*
X66586000Y-61156904D01*
X66700285Y-61195000D01*
X66776476Y-61271190D01*
X66814571Y-61347380D01*
X66852666Y-61499761D01*
X66852666Y-61614047D01*
X66814571Y-61766428D01*
X66776476Y-61842619D01*
X66700285Y-61918809D01*
X66586000Y-61956904D01*
X66509809Y-61956904D01*
X66395523Y-61918809D01*
X66357428Y-61880714D01*
X66357428Y-61614047D01*
X66509809Y-61614047D01*
X66014571Y-61956904D02*
X66014571Y-61156904D01*
X65557428Y-61956904D01*
X65557428Y-61156904D01*
X65176476Y-61956904D02*
X65176476Y-61156904D01*
X64986000Y-61156904D01*
X64871714Y-61195000D01*
X64795523Y-61271190D01*
X64757428Y-61347380D01*
X64719333Y-61499761D01*
X64719333Y-61614047D01*
X64757428Y-61766428D01*
X64795523Y-61842619D01*
X64871714Y-61918809D01*
X64986000Y-61956904D01*
X65176476Y-61956904D01*
X66109809Y-81857857D02*
X65995523Y-81895952D01*
X65957428Y-81934047D01*
X65919333Y-82010238D01*
X65919333Y-82124523D01*
X65957428Y-82200714D01*
X65995523Y-82238809D01*
X66071714Y-82276904D01*
X66376476Y-82276904D01*
X66376476Y-81476904D01*
X66109809Y-81476904D01*
X66033619Y-81515000D01*
X65995523Y-81553095D01*
X65957428Y-81629285D01*
X65957428Y-81705476D01*
X65995523Y-81781666D01*
X66033619Y-81819761D01*
X66109809Y-81857857D01*
X66376476Y-81857857D01*
X65652666Y-81476904D02*
X65157428Y-81476904D01*
X65424095Y-81781666D01*
X65309809Y-81781666D01*
X65233619Y-81819761D01*
X65195523Y-81857857D01*
X65157428Y-81934047D01*
X65157428Y-82124523D01*
X65195523Y-82200714D01*
X65233619Y-82238809D01*
X65309809Y-82276904D01*
X65538380Y-82276904D01*
X65614571Y-82238809D01*
X65652666Y-82200714D01*
X55187809Y-84397857D02*
X55073523Y-84435952D01*
X55035428Y-84474047D01*
X54997333Y-84550238D01*
X54997333Y-84664523D01*
X55035428Y-84740714D01*
X55073523Y-84778809D01*
X55149714Y-84816904D01*
X55454476Y-84816904D01*
X55454476Y-84016904D01*
X55187809Y-84016904D01*
X55111619Y-84055000D01*
X55073523Y-84093095D01*
X55035428Y-84169285D01*
X55035428Y-84245476D01*
X55073523Y-84321666D01*
X55111619Y-84359761D01*
X55187809Y-84397857D01*
X55454476Y-84397857D01*
X54311619Y-84283571D02*
X54311619Y-84816904D01*
X54502095Y-83978809D02*
X54692571Y-84550238D01*
X54197333Y-84550238D01*
%TO.C,MX13*%
X100186904Y-62491880D02*
X100186904Y-61491880D01*
X99853571Y-62206166D01*
X99520238Y-61491880D01*
X99520238Y-62491880D01*
X99139285Y-61491880D02*
X98472619Y-62491880D01*
X98472619Y-61491880D02*
X99139285Y-62491880D01*
X97567857Y-62491880D02*
X98139285Y-62491880D01*
X97853571Y-62491880D02*
X97853571Y-61491880D01*
X97948809Y-61634738D01*
X98044047Y-61729976D01*
X98139285Y-61777595D01*
X97234523Y-61491880D02*
X96615476Y-61491880D01*
X96948809Y-61872833D01*
X96805952Y-61872833D01*
X96710714Y-61920452D01*
X96663095Y-61968071D01*
X96615476Y-62063309D01*
X96615476Y-62301404D01*
X96663095Y-62396642D01*
X96710714Y-62444261D01*
X96805952Y-62491880D01*
X97091666Y-62491880D01*
X97186904Y-62444261D01*
X97234523Y-62396642D01*
%TO.C,D4*%
X50974404Y-121621623D02*
X50174404Y-121621623D01*
X50174404Y-121812100D01*
X50212500Y-121926385D01*
X50288690Y-122002576D01*
X50364880Y-122040671D01*
X50517261Y-122078766D01*
X50631547Y-122078766D01*
X50783928Y-122040671D01*
X50860119Y-122002576D01*
X50936309Y-121926385D01*
X50974404Y-121812100D01*
X50974404Y-121621623D01*
X50441071Y-122764480D02*
X50974404Y-122764480D01*
X50136309Y-122574004D02*
X50707738Y-122383528D01*
X50707738Y-122878766D01*
%TO.C,SW1*%
X76739583Y-71417261D02*
X76596726Y-71464880D01*
X76358630Y-71464880D01*
X76263392Y-71417261D01*
X76215773Y-71369642D01*
X76168154Y-71274404D01*
X76168154Y-71179166D01*
X76215773Y-71083928D01*
X76263392Y-71036309D01*
X76358630Y-70988690D01*
X76549107Y-70941071D01*
X76644345Y-70893452D01*
X76691964Y-70845833D01*
X76739583Y-70750595D01*
X76739583Y-70655357D01*
X76691964Y-70560119D01*
X76644345Y-70512500D01*
X76549107Y-70464880D01*
X76311011Y-70464880D01*
X76168154Y-70512500D01*
X75834821Y-70464880D02*
X75596726Y-71464880D01*
X75406250Y-70750595D01*
X75215773Y-71464880D01*
X74977678Y-70464880D01*
X74072916Y-71464880D02*
X74644345Y-71464880D01*
X74358630Y-71464880D02*
X74358630Y-70464880D01*
X74453869Y-70607738D01*
X74549107Y-70702976D01*
X74644345Y-70750595D01*
%TO.C,D5*%
X50974404Y-64471623D02*
X50174404Y-64471623D01*
X50174404Y-64662100D01*
X50212500Y-64776385D01*
X50288690Y-64852576D01*
X50364880Y-64890671D01*
X50517261Y-64928766D01*
X50631547Y-64928766D01*
X50783928Y-64890671D01*
X50860119Y-64852576D01*
X50936309Y-64776385D01*
X50974404Y-64662100D01*
X50974404Y-64471623D01*
X50174404Y-65652576D02*
X50174404Y-65271623D01*
X50555357Y-65233528D01*
X50517261Y-65271623D01*
X50479166Y-65347814D01*
X50479166Y-65538290D01*
X50517261Y-65614480D01*
X50555357Y-65652576D01*
X50631547Y-65690671D01*
X50822023Y-65690671D01*
X50898214Y-65652576D01*
X50936309Y-65614480D01*
X50974404Y-65538290D01*
X50974404Y-65347814D01*
X50936309Y-65271623D01*
X50898214Y-65233528D01*
%TO.C,D8*%
X54149404Y-121621623D02*
X53349404Y-121621623D01*
X53349404Y-121812100D01*
X53387500Y-121926385D01*
X53463690Y-122002576D01*
X53539880Y-122040671D01*
X53692261Y-122078766D01*
X53806547Y-122078766D01*
X53958928Y-122040671D01*
X54035119Y-122002576D01*
X54111309Y-121926385D01*
X54149404Y-121812100D01*
X54149404Y-121621623D01*
X53692261Y-122535909D02*
X53654166Y-122459719D01*
X53616071Y-122421623D01*
X53539880Y-122383528D01*
X53501785Y-122383528D01*
X53425595Y-122421623D01*
X53387500Y-122459719D01*
X53349404Y-122535909D01*
X53349404Y-122688290D01*
X53387500Y-122764480D01*
X53425595Y-122802576D01*
X53501785Y-122840671D01*
X53539880Y-122840671D01*
X53616071Y-122802576D01*
X53654166Y-122764480D01*
X53692261Y-122688290D01*
X53692261Y-122535909D01*
X53730357Y-122459719D01*
X53768452Y-122421623D01*
X53844642Y-122383528D01*
X53997023Y-122383528D01*
X54073214Y-122421623D01*
X54111309Y-122459719D01*
X54149404Y-122535909D01*
X54149404Y-122688290D01*
X54111309Y-122764480D01*
X54073214Y-122802576D01*
X53997023Y-122840671D01*
X53844642Y-122840671D01*
X53768452Y-122802576D01*
X53730357Y-122764480D01*
X53692261Y-122688290D01*
%TO.C,D12*%
X89074404Y-121240671D02*
X88274404Y-121240671D01*
X88274404Y-121431147D01*
X88312500Y-121545433D01*
X88388690Y-121621623D01*
X88464880Y-121659719D01*
X88617261Y-121697814D01*
X88731547Y-121697814D01*
X88883928Y-121659719D01*
X88960119Y-121621623D01*
X89036309Y-121545433D01*
X89074404Y-121431147D01*
X89074404Y-121240671D01*
X89074404Y-122459719D02*
X89074404Y-122002576D01*
X89074404Y-122231147D02*
X88274404Y-122231147D01*
X88388690Y-122154957D01*
X88464880Y-122078766D01*
X88502976Y-122002576D01*
X88350595Y-122764480D02*
X88312500Y-122802576D01*
X88274404Y-122878766D01*
X88274404Y-123069242D01*
X88312500Y-123145433D01*
X88350595Y-123183528D01*
X88426785Y-123221623D01*
X88502976Y-123221623D01*
X88617261Y-123183528D01*
X89074404Y-122726385D01*
X89074404Y-123221623D01*
%TO.C,D7*%
X54149404Y-102571623D02*
X53349404Y-102571623D01*
X53349404Y-102762100D01*
X53387500Y-102876385D01*
X53463690Y-102952576D01*
X53539880Y-102990671D01*
X53692261Y-103028766D01*
X53806547Y-103028766D01*
X53958928Y-102990671D01*
X54035119Y-102952576D01*
X54111309Y-102876385D01*
X54149404Y-102762100D01*
X54149404Y-102571623D01*
X53349404Y-103295433D02*
X53349404Y-103828766D01*
X54149404Y-103485909D01*
%TO.C,D20*%
X98021828Y-129555654D02*
X98021828Y-128755654D01*
X97831352Y-128755654D01*
X97717066Y-128793750D01*
X97640876Y-128869940D01*
X97602780Y-128946130D01*
X97564685Y-129098511D01*
X97564685Y-129212797D01*
X97602780Y-129365178D01*
X97640876Y-129441369D01*
X97717066Y-129517559D01*
X97831352Y-129555654D01*
X98021828Y-129555654D01*
X97259923Y-128831845D02*
X97221828Y-128793750D01*
X97145638Y-128755654D01*
X96955161Y-128755654D01*
X96878971Y-128793750D01*
X96840876Y-128831845D01*
X96802780Y-128908035D01*
X96802780Y-128984226D01*
X96840876Y-129098511D01*
X97298019Y-129555654D01*
X96802780Y-129555654D01*
X96307542Y-128755654D02*
X96231352Y-128755654D01*
X96155161Y-128793750D01*
X96117066Y-128831845D01*
X96078971Y-128908035D01*
X96040876Y-129060416D01*
X96040876Y-129250892D01*
X96078971Y-129403273D01*
X96117066Y-129479464D01*
X96155161Y-129517559D01*
X96231352Y-129555654D01*
X96307542Y-129555654D01*
X96383733Y-129517559D01*
X96421828Y-129479464D01*
X96459923Y-129403273D01*
X96498019Y-129250892D01*
X96498019Y-129060416D01*
X96459923Y-128908035D01*
X96421828Y-128831845D01*
X96383733Y-128793750D01*
X96307542Y-128755654D01*
%TO.C,D9*%
X89074404Y-64471623D02*
X88274404Y-64471623D01*
X88274404Y-64662100D01*
X88312500Y-64776385D01*
X88388690Y-64852576D01*
X88464880Y-64890671D01*
X88617261Y-64928766D01*
X88731547Y-64928766D01*
X88883928Y-64890671D01*
X88960119Y-64852576D01*
X89036309Y-64776385D01*
X89074404Y-64662100D01*
X89074404Y-64471623D01*
X89074404Y-65309719D02*
X89074404Y-65462100D01*
X89036309Y-65538290D01*
X88998214Y-65576385D01*
X88883928Y-65652576D01*
X88731547Y-65690671D01*
X88426785Y-65690671D01*
X88350595Y-65652576D01*
X88312500Y-65614480D01*
X88274404Y-65538290D01*
X88274404Y-65385909D01*
X88312500Y-65309719D01*
X88350595Y-65271623D01*
X88426785Y-65233528D01*
X88617261Y-65233528D01*
X88693452Y-65271623D01*
X88731547Y-65309719D01*
X88769642Y-65385909D01*
X88769642Y-65538290D01*
X88731547Y-65614480D01*
X88693452Y-65652576D01*
X88617261Y-65690671D01*
%TO.C,D10*%
X89074404Y-83140671D02*
X88274404Y-83140671D01*
X88274404Y-83331147D01*
X88312500Y-83445433D01*
X88388690Y-83521623D01*
X88464880Y-83559719D01*
X88617261Y-83597814D01*
X88731547Y-83597814D01*
X88883928Y-83559719D01*
X88960119Y-83521623D01*
X89036309Y-83445433D01*
X89074404Y-83331147D01*
X89074404Y-83140671D01*
X89074404Y-84359719D02*
X89074404Y-83902576D01*
X89074404Y-84131147D02*
X88274404Y-84131147D01*
X88388690Y-84054957D01*
X88464880Y-83978766D01*
X88502976Y-83902576D01*
X88274404Y-84854957D02*
X88274404Y-84931147D01*
X88312500Y-85007338D01*
X88350595Y-85045433D01*
X88426785Y-85083528D01*
X88579166Y-85121623D01*
X88769642Y-85121623D01*
X88922023Y-85083528D01*
X88998214Y-85045433D01*
X89036309Y-85007338D01*
X89074404Y-84931147D01*
X89074404Y-84854957D01*
X89036309Y-84778766D01*
X88998214Y-84740671D01*
X88922023Y-84702576D01*
X88769642Y-84664480D01*
X88579166Y-84664480D01*
X88426785Y-84702576D01*
X88350595Y-84740671D01*
X88312500Y-84778766D01*
X88274404Y-84854957D01*
%TO.C,D3*%
X50974404Y-102571623D02*
X50174404Y-102571623D01*
X50174404Y-102762100D01*
X50212500Y-102876385D01*
X50288690Y-102952576D01*
X50364880Y-102990671D01*
X50517261Y-103028766D01*
X50631547Y-103028766D01*
X50783928Y-102990671D01*
X50860119Y-102952576D01*
X50936309Y-102876385D01*
X50974404Y-102762100D01*
X50974404Y-102571623D01*
X50174404Y-103295433D02*
X50174404Y-103790671D01*
X50479166Y-103524004D01*
X50479166Y-103638290D01*
X50517261Y-103714480D01*
X50555357Y-103752576D01*
X50631547Y-103790671D01*
X50822023Y-103790671D01*
X50898214Y-103752576D01*
X50936309Y-103714480D01*
X50974404Y-103638290D01*
X50974404Y-103409719D01*
X50936309Y-103333528D01*
X50898214Y-103295433D01*
%TO.C,D16*%
X92249404Y-121240671D02*
X91449404Y-121240671D01*
X91449404Y-121431147D01*
X91487500Y-121545433D01*
X91563690Y-121621623D01*
X91639880Y-121659719D01*
X91792261Y-121697814D01*
X91906547Y-121697814D01*
X92058928Y-121659719D01*
X92135119Y-121621623D01*
X92211309Y-121545433D01*
X92249404Y-121431147D01*
X92249404Y-121240671D01*
X92249404Y-122459719D02*
X92249404Y-122002576D01*
X92249404Y-122231147D02*
X91449404Y-122231147D01*
X91563690Y-122154957D01*
X91639880Y-122078766D01*
X91677976Y-122002576D01*
X91449404Y-123145433D02*
X91449404Y-122993052D01*
X91487500Y-122916861D01*
X91525595Y-122878766D01*
X91639880Y-122802576D01*
X91792261Y-122764480D01*
X92097023Y-122764480D01*
X92173214Y-122802576D01*
X92211309Y-122840671D01*
X92249404Y-122916861D01*
X92249404Y-123069242D01*
X92211309Y-123145433D01*
X92173214Y-123183528D01*
X92097023Y-123221623D01*
X91906547Y-123221623D01*
X91830357Y-123183528D01*
X91792261Y-123145433D01*
X91754166Y-123069242D01*
X91754166Y-122916861D01*
X91792261Y-122840671D01*
X91830357Y-122802576D01*
X91906547Y-122764480D01*
%TO.C,D6*%
X50974404Y-83521623D02*
X50174404Y-83521623D01*
X50174404Y-83712100D01*
X50212500Y-83826385D01*
X50288690Y-83902576D01*
X50364880Y-83940671D01*
X50517261Y-83978766D01*
X50631547Y-83978766D01*
X50783928Y-83940671D01*
X50860119Y-83902576D01*
X50936309Y-83826385D01*
X50974404Y-83712100D01*
X50974404Y-83521623D01*
X50174404Y-84664480D02*
X50174404Y-84512100D01*
X50212500Y-84435909D01*
X50250595Y-84397814D01*
X50364880Y-84321623D01*
X50517261Y-84283528D01*
X50822023Y-84283528D01*
X50898214Y-84321623D01*
X50936309Y-84359719D01*
X50974404Y-84435909D01*
X50974404Y-84588290D01*
X50936309Y-84664480D01*
X50898214Y-84702576D01*
X50822023Y-84740671D01*
X50631547Y-84740671D01*
X50555357Y-84702576D01*
X50517261Y-84664480D01*
X50479166Y-84588290D01*
X50479166Y-84435909D01*
X50517261Y-84359719D01*
X50555357Y-84321623D01*
X50631547Y-84283528D01*
%TO.C,D14*%
X92249404Y-83140671D02*
X91449404Y-83140671D01*
X91449404Y-83331147D01*
X91487500Y-83445433D01*
X91563690Y-83521623D01*
X91639880Y-83559719D01*
X91792261Y-83597814D01*
X91906547Y-83597814D01*
X92058928Y-83559719D01*
X92135119Y-83521623D01*
X92211309Y-83445433D01*
X92249404Y-83331147D01*
X92249404Y-83140671D01*
X92249404Y-84359719D02*
X92249404Y-83902576D01*
X92249404Y-84131147D02*
X91449404Y-84131147D01*
X91563690Y-84054957D01*
X91639880Y-83978766D01*
X91677976Y-83902576D01*
X91716071Y-85045433D02*
X92249404Y-85045433D01*
X91411309Y-84854957D02*
X91982738Y-84664480D01*
X91982738Y-85159719D01*
%TO.C,D18*%
X118471828Y-93043154D02*
X118471828Y-92243154D01*
X118281352Y-92243154D01*
X118167066Y-92281250D01*
X118090876Y-92357440D01*
X118052780Y-92433630D01*
X118014685Y-92586011D01*
X118014685Y-92700297D01*
X118052780Y-92852678D01*
X118090876Y-92928869D01*
X118167066Y-93005059D01*
X118281352Y-93043154D01*
X118471828Y-93043154D01*
X117252780Y-93043154D02*
X117709923Y-93043154D01*
X117481352Y-93043154D02*
X117481352Y-92243154D01*
X117557542Y-92357440D01*
X117633733Y-92433630D01*
X117709923Y-92471726D01*
X116795638Y-92586011D02*
X116871828Y-92547916D01*
X116909923Y-92509821D01*
X116948019Y-92433630D01*
X116948019Y-92395535D01*
X116909923Y-92319345D01*
X116871828Y-92281250D01*
X116795638Y-92243154D01*
X116643257Y-92243154D01*
X116567066Y-92281250D01*
X116528971Y-92319345D01*
X116490876Y-92395535D01*
X116490876Y-92433630D01*
X116528971Y-92509821D01*
X116567066Y-92547916D01*
X116643257Y-92586011D01*
X116795638Y-92586011D01*
X116871828Y-92624107D01*
X116909923Y-92662202D01*
X116948019Y-92738392D01*
X116948019Y-92890773D01*
X116909923Y-92966964D01*
X116871828Y-93005059D01*
X116795638Y-93043154D01*
X116643257Y-93043154D01*
X116567066Y-93005059D01*
X116528971Y-92966964D01*
X116490876Y-92890773D01*
X116490876Y-92738392D01*
X116528971Y-92662202D01*
X116567066Y-92624107D01*
X116643257Y-92586011D01*
%TO.C,D19*%
X118471828Y-112093154D02*
X118471828Y-111293154D01*
X118281352Y-111293154D01*
X118167066Y-111331250D01*
X118090876Y-111407440D01*
X118052780Y-111483630D01*
X118014685Y-111636011D01*
X118014685Y-111750297D01*
X118052780Y-111902678D01*
X118090876Y-111978869D01*
X118167066Y-112055059D01*
X118281352Y-112093154D01*
X118471828Y-112093154D01*
X117252780Y-112093154D02*
X117709923Y-112093154D01*
X117481352Y-112093154D02*
X117481352Y-111293154D01*
X117557542Y-111407440D01*
X117633733Y-111483630D01*
X117709923Y-111521726D01*
X116871828Y-112093154D02*
X116719447Y-112093154D01*
X116643257Y-112055059D01*
X116605161Y-112016964D01*
X116528971Y-111902678D01*
X116490876Y-111750297D01*
X116490876Y-111445535D01*
X116528971Y-111369345D01*
X116567066Y-111331250D01*
X116643257Y-111293154D01*
X116795638Y-111293154D01*
X116871828Y-111331250D01*
X116909923Y-111369345D01*
X116948019Y-111445535D01*
X116948019Y-111636011D01*
X116909923Y-111712202D01*
X116871828Y-111750297D01*
X116795638Y-111788392D01*
X116643257Y-111788392D01*
X116567066Y-111750297D01*
X116528971Y-111712202D01*
X116490876Y-111636011D01*
%TO.C,D17*%
X118471828Y-73993154D02*
X118471828Y-73193154D01*
X118281352Y-73193154D01*
X118167066Y-73231250D01*
X118090876Y-73307440D01*
X118052780Y-73383630D01*
X118014685Y-73536011D01*
X118014685Y-73650297D01*
X118052780Y-73802678D01*
X118090876Y-73878869D01*
X118167066Y-73955059D01*
X118281352Y-73993154D01*
X118471828Y-73993154D01*
X117252780Y-73993154D02*
X117709923Y-73993154D01*
X117481352Y-73993154D02*
X117481352Y-73193154D01*
X117557542Y-73307440D01*
X117633733Y-73383630D01*
X117709923Y-73421726D01*
X116986114Y-73193154D02*
X116452780Y-73193154D01*
X116795638Y-73993154D01*
%TO.C,D11*%
X89074404Y-102190671D02*
X88274404Y-102190671D01*
X88274404Y-102381147D01*
X88312500Y-102495433D01*
X88388690Y-102571623D01*
X88464880Y-102609719D01*
X88617261Y-102647814D01*
X88731547Y-102647814D01*
X88883928Y-102609719D01*
X88960119Y-102571623D01*
X89036309Y-102495433D01*
X89074404Y-102381147D01*
X89074404Y-102190671D01*
X89074404Y-103409719D02*
X89074404Y-102952576D01*
X89074404Y-103181147D02*
X88274404Y-103181147D01*
X88388690Y-103104957D01*
X88464880Y-103028766D01*
X88502976Y-102952576D01*
X89074404Y-104171623D02*
X89074404Y-103714480D01*
X89074404Y-103943052D02*
X88274404Y-103943052D01*
X88388690Y-103866861D01*
X88464880Y-103790671D01*
X88502976Y-103714480D01*
%TO.C,D15*%
X92249404Y-102190671D02*
X91449404Y-102190671D01*
X91449404Y-102381147D01*
X91487500Y-102495433D01*
X91563690Y-102571623D01*
X91639880Y-102609719D01*
X91792261Y-102647814D01*
X91906547Y-102647814D01*
X92058928Y-102609719D01*
X92135119Y-102571623D01*
X92211309Y-102495433D01*
X92249404Y-102381147D01*
X92249404Y-102190671D01*
X92249404Y-103409719D02*
X92249404Y-102952576D01*
X92249404Y-103181147D02*
X91449404Y-103181147D01*
X91563690Y-103104957D01*
X91639880Y-103028766D01*
X91677976Y-102952576D01*
X91449404Y-104133528D02*
X91449404Y-103752576D01*
X91830357Y-103714480D01*
X91792261Y-103752576D01*
X91754166Y-103828766D01*
X91754166Y-104019242D01*
X91792261Y-104095433D01*
X91830357Y-104133528D01*
X91906547Y-104171623D01*
X92097023Y-104171623D01*
X92173214Y-104133528D01*
X92211309Y-104095433D01*
X92249404Y-104019242D01*
X92249404Y-103828766D01*
X92211309Y-103752576D01*
X92173214Y-103714480D01*
%TO.C,D1*%
X42027576Y-69605654D02*
X42027576Y-68805654D01*
X41837100Y-68805654D01*
X41722814Y-68843750D01*
X41646623Y-68919940D01*
X41608528Y-68996130D01*
X41570433Y-69148511D01*
X41570433Y-69262797D01*
X41608528Y-69415178D01*
X41646623Y-69491369D01*
X41722814Y-69567559D01*
X41837100Y-69605654D01*
X42027576Y-69605654D01*
X40808528Y-69605654D02*
X41265671Y-69605654D01*
X41037100Y-69605654D02*
X41037100Y-68805654D01*
X41113290Y-68919940D01*
X41189480Y-68996130D01*
X41265671Y-69034226D01*
%TO.C,D2*%
X41840076Y-90243154D02*
X41840076Y-89443154D01*
X41649600Y-89443154D01*
X41535314Y-89481250D01*
X41459123Y-89557440D01*
X41421028Y-89633630D01*
X41382933Y-89786011D01*
X41382933Y-89900297D01*
X41421028Y-90052678D01*
X41459123Y-90128869D01*
X41535314Y-90205059D01*
X41649600Y-90243154D01*
X41840076Y-90243154D01*
X41078171Y-89519345D02*
X41040076Y-89481250D01*
X40963885Y-89443154D01*
X40773409Y-89443154D01*
X40697219Y-89481250D01*
X40659123Y-89519345D01*
X40621028Y-89595535D01*
X40621028Y-89671726D01*
X40659123Y-89786011D01*
X41116266Y-90243154D01*
X40621028Y-90243154D01*
%TO.C,D13*%
X92249404Y-64090671D02*
X91449404Y-64090671D01*
X91449404Y-64281147D01*
X91487500Y-64395433D01*
X91563690Y-64471623D01*
X91639880Y-64509719D01*
X91792261Y-64547814D01*
X91906547Y-64547814D01*
X92058928Y-64509719D01*
X92135119Y-64471623D01*
X92211309Y-64395433D01*
X92249404Y-64281147D01*
X92249404Y-64090671D01*
X92249404Y-65309719D02*
X92249404Y-64852576D01*
X92249404Y-65081147D02*
X91449404Y-65081147D01*
X91563690Y-65004957D01*
X91639880Y-64928766D01*
X91677976Y-64852576D01*
X91449404Y-65576385D02*
X91449404Y-66071623D01*
X91754166Y-65804957D01*
X91754166Y-65919242D01*
X91792261Y-65995433D01*
X91830357Y-66033528D01*
X91906547Y-66071623D01*
X92097023Y-66071623D01*
X92173214Y-66033528D01*
X92211309Y-65995433D01*
X92249404Y-65919242D01*
X92249404Y-65690671D01*
X92211309Y-65614480D01*
X92173214Y-65576385D01*
%TO.C,MX20*%
X111475000Y-129237500D02*
X110475000Y-129237500D01*
X110475000Y-115237500D02*
X111475000Y-115237500D01*
X110475000Y-116237500D02*
X110475000Y-115237500D01*
X123475000Y-115237500D02*
X124475000Y-115237500D01*
X124475000Y-129237500D02*
X123475000Y-129237500D01*
X124475000Y-115237500D02*
X124475000Y-116237500D01*
X110475000Y-129237500D02*
X110475000Y-128237500D01*
X124475000Y-128237500D02*
X124475000Y-129237500D01*
%TO.C,MX16*%
X105425000Y-128237500D02*
X105425000Y-129237500D01*
X91425000Y-115237500D02*
X92425000Y-115237500D01*
X105425000Y-129237500D02*
X104425000Y-129237500D01*
X104425000Y-115237500D02*
X105425000Y-115237500D01*
X91425000Y-129237500D02*
X91425000Y-128237500D01*
X105425000Y-115237500D02*
X105425000Y-116237500D01*
X92425000Y-129237500D02*
X91425000Y-129237500D01*
X91425000Y-116237500D02*
X91425000Y-115237500D01*
%TO.C,MX15*%
X105425000Y-110187500D02*
X104425000Y-110187500D01*
X105425000Y-109187500D02*
X105425000Y-110187500D01*
X92425000Y-110187500D02*
X91425000Y-110187500D01*
X91425000Y-96187500D02*
X92425000Y-96187500D01*
X104425000Y-96187500D02*
X105425000Y-96187500D01*
X91425000Y-97187500D02*
X91425000Y-96187500D01*
X91425000Y-110187500D02*
X91425000Y-109187500D01*
X105425000Y-96187500D02*
X105425000Y-97187500D01*
%TO.C,MX19*%
X124475000Y-96187500D02*
X124475000Y-97187500D01*
X110475000Y-97187500D02*
X110475000Y-96187500D01*
X124475000Y-109187500D02*
X124475000Y-110187500D01*
X110475000Y-110187500D02*
X110475000Y-109187500D01*
X110475000Y-96187500D02*
X111475000Y-96187500D01*
X123475000Y-96187500D02*
X124475000Y-96187500D01*
X124475000Y-110187500D02*
X123475000Y-110187500D01*
X111475000Y-110187500D02*
X110475000Y-110187500D01*
%TO.C,MX2*%
X34275000Y-78137500D02*
X34275000Y-77137500D01*
X48275000Y-77137500D02*
X48275000Y-78137500D01*
X48275000Y-90137500D02*
X48275000Y-91137500D01*
X35275000Y-91137500D02*
X34275000Y-91137500D01*
X47275000Y-77137500D02*
X48275000Y-77137500D01*
X34275000Y-77137500D02*
X35275000Y-77137500D01*
X48275000Y-91137500D02*
X47275000Y-91137500D01*
X34275000Y-91137500D02*
X34275000Y-90137500D01*
%TO.C,MX11*%
X86375000Y-110187500D02*
X85375000Y-110187500D01*
X72375000Y-96187500D02*
X73375000Y-96187500D01*
X72375000Y-110187500D02*
X72375000Y-109187500D01*
X73375000Y-110187500D02*
X72375000Y-110187500D01*
X86375000Y-109187500D02*
X86375000Y-110187500D01*
X72375000Y-97187500D02*
X72375000Y-96187500D01*
X85375000Y-96187500D02*
X86375000Y-96187500D01*
X86375000Y-96187500D02*
X86375000Y-97187500D01*
%TO.C,MX3*%
X48275000Y-110187500D02*
X47275000Y-110187500D01*
X47275000Y-96187500D02*
X48275000Y-96187500D01*
X48275000Y-109187500D02*
X48275000Y-110187500D01*
X48275000Y-96187500D02*
X48275000Y-97187500D01*
X34275000Y-97187500D02*
X34275000Y-96187500D01*
X34275000Y-110187500D02*
X34275000Y-109187500D01*
X35275000Y-110187500D02*
X34275000Y-110187500D01*
X34275000Y-96187500D02*
X35275000Y-96187500D01*
%TO.C,MX4*%
X47275000Y-115237500D02*
X48275000Y-115237500D01*
X48275000Y-115237500D02*
X48275000Y-116237500D01*
X34275000Y-116237500D02*
X34275000Y-115237500D01*
X35275000Y-129237500D02*
X34275000Y-129237500D01*
X34275000Y-129237500D02*
X34275000Y-128237500D01*
X34275000Y-115237500D02*
X35275000Y-115237500D01*
X48275000Y-128237500D02*
X48275000Y-129237500D01*
X48275000Y-129237500D02*
X47275000Y-129237500D01*
%TO.C,MX14*%
X91425000Y-77137500D02*
X92425000Y-77137500D01*
X105425000Y-77137500D02*
X105425000Y-78137500D01*
X92425000Y-91137500D02*
X91425000Y-91137500D01*
X105425000Y-90137500D02*
X105425000Y-91137500D01*
X104425000Y-77137500D02*
X105425000Y-77137500D01*
X91425000Y-78137500D02*
X91425000Y-77137500D01*
X105425000Y-91137500D02*
X104425000Y-91137500D01*
X91425000Y-91137500D02*
X91425000Y-90137500D01*
%TO.C,MX17*%
X110475000Y-59087500D02*
X110475000Y-58087500D01*
X124475000Y-72087500D02*
X123475000Y-72087500D01*
X111475000Y-72087500D02*
X110475000Y-72087500D01*
X110475000Y-58087500D02*
X111475000Y-58087500D01*
X110475000Y-72087500D02*
X110475000Y-71087500D01*
X123475000Y-58087500D02*
X124475000Y-58087500D01*
X124475000Y-71087500D02*
X124475000Y-72087500D01*
X124475000Y-58087500D02*
X124475000Y-59087500D01*
%TO.C,MX9*%
X85375000Y-58087500D02*
X86375000Y-58087500D01*
X86375000Y-71087500D02*
X86375000Y-72087500D01*
X72375000Y-58087500D02*
X73375000Y-58087500D01*
X86375000Y-72087500D02*
X85375000Y-72087500D01*
X86375000Y-58087500D02*
X86375000Y-59087500D01*
X72375000Y-72087500D02*
X72375000Y-71087500D01*
X73375000Y-72087500D02*
X72375000Y-72087500D01*
X72375000Y-59087500D02*
X72375000Y-58087500D01*
%TO.C,MX12*%
X86375000Y-129237500D02*
X85375000Y-129237500D01*
X72375000Y-115237500D02*
X73375000Y-115237500D01*
X86375000Y-115237500D02*
X86375000Y-116237500D01*
X86375000Y-128237500D02*
X86375000Y-129237500D01*
X73375000Y-129237500D02*
X72375000Y-129237500D01*
X85375000Y-115237500D02*
X86375000Y-115237500D01*
X72375000Y-116237500D02*
X72375000Y-115237500D01*
X72375000Y-129237500D02*
X72375000Y-128237500D01*
%TO.C,MX8*%
X53325000Y-129237500D02*
X53325000Y-128237500D01*
X67325000Y-128237500D02*
X67325000Y-129237500D01*
X54325000Y-129237500D02*
X53325000Y-129237500D01*
X67325000Y-129237500D02*
X66325000Y-129237500D01*
X53325000Y-116237500D02*
X53325000Y-115237500D01*
X53325000Y-115237500D02*
X54325000Y-115237500D01*
X67325000Y-115237500D02*
X67325000Y-116237500D01*
X66325000Y-115237500D02*
X67325000Y-115237500D01*
%TO.C,MX6*%
X53325000Y-78137500D02*
X53325000Y-77137500D01*
X53325000Y-77137500D02*
X54325000Y-77137500D01*
X67325000Y-90137500D02*
X67325000Y-91137500D01*
X67325000Y-77137500D02*
X67325000Y-78137500D01*
X66325000Y-77137500D02*
X67325000Y-77137500D01*
X67325000Y-91137500D02*
X66325000Y-91137500D01*
X53325000Y-91137500D02*
X53325000Y-90137500D01*
X54325000Y-91137500D02*
X53325000Y-91137500D01*
%TO.C,MX10*%
X72375000Y-91137500D02*
X72375000Y-90137500D01*
X86375000Y-77137500D02*
X86375000Y-78137500D01*
X85375000Y-77137500D02*
X86375000Y-77137500D01*
X86375000Y-90137500D02*
X86375000Y-91137500D01*
X86375000Y-91137500D02*
X85375000Y-91137500D01*
X73375000Y-91137500D02*
X72375000Y-91137500D01*
X72375000Y-77137500D02*
X73375000Y-77137500D01*
X72375000Y-78137500D02*
X72375000Y-77137500D01*
%TO.C,MX5*%
X67325000Y-72087500D02*
X66325000Y-72087500D01*
X67325000Y-71087500D02*
X67325000Y-72087500D01*
X53325000Y-72087500D02*
X53325000Y-71087500D01*
X66325000Y-58087500D02*
X67325000Y-58087500D01*
X53325000Y-58087500D02*
X54325000Y-58087500D01*
X53325000Y-59087500D02*
X53325000Y-58087500D01*
X54325000Y-72087500D02*
X53325000Y-72087500D01*
X67325000Y-58087500D02*
X67325000Y-59087500D01*
%TO.C,MX18*%
X123475000Y-77137500D02*
X124475000Y-77137500D01*
X110475000Y-91137500D02*
X110475000Y-90137500D01*
X110475000Y-77137500D02*
X111475000Y-77137500D01*
X124475000Y-91137500D02*
X123475000Y-91137500D01*
X111475000Y-91137500D02*
X110475000Y-91137500D01*
X124475000Y-77137500D02*
X124475000Y-78137500D01*
X110475000Y-78137500D02*
X110475000Y-77137500D01*
X124475000Y-90137500D02*
X124475000Y-91137500D01*
%TO.C,MX7*%
X54325000Y-110187500D02*
X53325000Y-110187500D01*
X66325000Y-96187500D02*
X67325000Y-96187500D01*
X67325000Y-109187500D02*
X67325000Y-110187500D01*
X67325000Y-96187500D02*
X67325000Y-97187500D01*
X53325000Y-97187500D02*
X53325000Y-96187500D01*
X67325000Y-110187500D02*
X66325000Y-110187500D01*
X53325000Y-96187500D02*
X54325000Y-96187500D01*
X53325000Y-110187500D02*
X53325000Y-109187500D01*
%TO.C,MX1*%
X48275000Y-58087500D02*
X48275000Y-59087500D01*
X48275000Y-72087500D02*
X47275000Y-72087500D01*
X48275000Y-71087500D02*
X48275000Y-72087500D01*
X34275000Y-72087500D02*
X34275000Y-71087500D01*
X34275000Y-58087500D02*
X35275000Y-58087500D01*
X34275000Y-59087500D02*
X34275000Y-58087500D01*
X35275000Y-72087500D02*
X34275000Y-72087500D01*
X47275000Y-58087500D02*
X48275000Y-58087500D01*
%TO.C,MX21*%
X100950000Y-115237500D02*
X101950000Y-115237500D01*
X100950000Y-129237500D02*
X100950000Y-128237500D01*
X114950000Y-129237500D02*
X113950000Y-129237500D01*
X114950000Y-115237500D02*
X114950000Y-116237500D01*
X100950000Y-116237500D02*
X100950000Y-115237500D01*
X113950000Y-115237500D02*
X114950000Y-115237500D01*
X101950000Y-129237500D02*
X100950000Y-129237500D01*
X114950000Y-128237500D02*
X114950000Y-129237500D01*
D12*
%TO.C,U1*%
X69215000Y-55245000D02*
X51435000Y-55245000D01*
X53975000Y-57785000D02*
X51435000Y-57785000D01*
X53975000Y-57785000D02*
X53975000Y-60325000D01*
X51435000Y-88265000D02*
X69215000Y-88265000D01*
X53975000Y-60325000D02*
X51435000Y-60325000D01*
X51435000Y-55245000D02*
X51435000Y-88265000D01*
X69215000Y-88265000D02*
X69215000Y-55245000D01*
D11*
X66169635Y-64274030D02*
X66169635Y-64474030D01*
X66169635Y-64474030D02*
X66269635Y-64474030D01*
X66269635Y-64474030D02*
X66269635Y-64274030D01*
X66269635Y-64274030D02*
X66169635Y-64274030D01*
G36*
X66269635Y-64474030D02*
G01*
X66169635Y-64474030D01*
X66169635Y-64274030D01*
X66269635Y-64274030D01*
X66269635Y-64474030D01*
G37*
X66269635Y-64474030D02*
X66169635Y-64474030D01*
X66169635Y-64274030D01*
X66269635Y-64274030D01*
X66269635Y-64474030D01*
X66169635Y-63674030D02*
X66169635Y-63774030D01*
X66169635Y-63774030D02*
X66669635Y-63774030D01*
X66669635Y-63774030D02*
X66669635Y-63674030D01*
X66669635Y-63674030D02*
X66169635Y-63674030D01*
G36*
X66669635Y-63774030D02*
G01*
X66169635Y-63774030D01*
X66169635Y-63674030D01*
X66669635Y-63674030D01*
X66669635Y-63774030D01*
G37*
X66669635Y-63774030D02*
X66169635Y-63774030D01*
X66169635Y-63674030D01*
X66669635Y-63674030D01*
X66669635Y-63774030D01*
X66169635Y-63674030D02*
X66169635Y-63974030D01*
X66169635Y-63974030D02*
X66269635Y-63974030D01*
X66269635Y-63974030D02*
X66269635Y-63674030D01*
X66269635Y-63674030D02*
X66169635Y-63674030D01*
G36*
X66269635Y-63974030D02*
G01*
X66169635Y-63974030D01*
X66169635Y-63674030D01*
X66269635Y-63674030D01*
X66269635Y-63974030D01*
G37*
X66269635Y-63974030D02*
X66169635Y-63974030D01*
X66169635Y-63674030D01*
X66269635Y-63674030D01*
X66269635Y-63974030D01*
X66569635Y-63674030D02*
X66569635Y-64474030D01*
X66569635Y-64474030D02*
X66669635Y-64474030D01*
X66669635Y-64474030D02*
X66669635Y-63674030D01*
X66669635Y-63674030D02*
X66569635Y-63674030D01*
G36*
X66669635Y-64474030D02*
G01*
X66569635Y-64474030D01*
X66569635Y-63674030D01*
X66669635Y-63674030D01*
X66669635Y-64474030D01*
G37*
X66669635Y-64474030D02*
X66569635Y-64474030D01*
X66569635Y-63674030D01*
X66669635Y-63674030D01*
X66669635Y-64474030D01*
X66369635Y-64074030D02*
X66369635Y-64174030D01*
X66369635Y-64174030D02*
X66469635Y-64174030D01*
X66469635Y-64174030D02*
X66469635Y-64074030D01*
X66469635Y-64074030D02*
X66369635Y-64074030D01*
G36*
X66469635Y-64174030D02*
G01*
X66369635Y-64174030D01*
X66369635Y-64074030D01*
X66469635Y-64074030D01*
X66469635Y-64174030D01*
G37*
X66469635Y-64174030D02*
X66369635Y-64174030D01*
X66369635Y-64074030D01*
X66469635Y-64074030D01*
X66469635Y-64174030D01*
%TO.C,MX13*%
X91425000Y-72087500D02*
X91425000Y-71087500D01*
X105425000Y-71087500D02*
X105425000Y-72087500D01*
X104425000Y-58087500D02*
X105425000Y-58087500D01*
X91425000Y-58087500D02*
X92425000Y-58087500D01*
X91425000Y-59087500D02*
X91425000Y-58087500D01*
X105425000Y-72087500D02*
X104425000Y-72087500D01*
X92425000Y-72087500D02*
X91425000Y-72087500D01*
X105425000Y-58087500D02*
X105425000Y-59087500D01*
%TO.C,U3*%
X103548750Y-56917500D02*
X109648750Y-56917500D01*
X109648750Y-56917500D02*
X109648750Y-69017500D01*
X109398750Y-56917500D02*
X109398750Y-54917500D01*
X103548750Y-69017500D02*
X109648750Y-69017500D01*
X103798750Y-56917500D02*
X103798750Y-54917500D01*
X103798750Y-54917500D02*
X109398750Y-54917500D01*
X103548750Y-56917500D02*
X103548750Y-69017500D01*
%TO.C,D4*%
X49974500Y-124015500D02*
X48450500Y-124015500D01*
X49974500Y-124777500D02*
X48450500Y-124777500D01*
X49974500Y-124650500D02*
X48450500Y-124650500D01*
X48450500Y-119697500D02*
X49974500Y-119697500D01*
X49974500Y-119697500D02*
X49974500Y-124777500D01*
X49974500Y-119697500D02*
X49974500Y-120205500D01*
X49974500Y-124142500D02*
X48450500Y-124142500D01*
X48450500Y-124269500D02*
X49974500Y-124269500D01*
X48450500Y-124523500D02*
X49974500Y-124523500D01*
X49974500Y-124396500D02*
X48450500Y-124396500D01*
X48450500Y-124777500D02*
X48450500Y-119697500D01*
D13*
%TO.C,SW1*%
X76856250Y-77332500D02*
X73956250Y-77332500D01*
X76856250Y-71892500D02*
X73956250Y-71892500D01*
X72686250Y-75652500D02*
X72686250Y-73572500D01*
X78126250Y-75652500D02*
X78126250Y-73572500D01*
X73956250Y-71892500D02*
X73466250Y-72382500D01*
X73956250Y-77332500D02*
X73466250Y-76842500D01*
X76856250Y-71892500D02*
X77346250Y-72382500D01*
X76856250Y-77332500D02*
X77346250Y-76842500D01*
D11*
%TO.C,D5*%
X49974500Y-67500500D02*
X48450500Y-67500500D01*
X49974500Y-67627500D02*
X48450500Y-67627500D01*
X48450500Y-67119500D02*
X49974500Y-67119500D01*
X48450500Y-67373500D02*
X49974500Y-67373500D01*
X49974500Y-67246500D02*
X48450500Y-67246500D01*
X49974500Y-62547500D02*
X49974500Y-63055500D01*
X49974500Y-66865500D02*
X48450500Y-66865500D01*
X49974500Y-62547500D02*
X49974500Y-67627500D01*
X48450500Y-62547500D02*
X49974500Y-62547500D01*
X48450500Y-67627500D02*
X48450500Y-62547500D01*
X49974500Y-66992500D02*
X48450500Y-66992500D01*
%TO.C,D8*%
X53149500Y-119697500D02*
X53149500Y-120205500D01*
X53149500Y-124777500D02*
X51625500Y-124777500D01*
X51625500Y-124523500D02*
X53149500Y-124523500D01*
X53149500Y-124396500D02*
X51625500Y-124396500D01*
X53149500Y-124650500D02*
X51625500Y-124650500D01*
X51625500Y-124777500D02*
X51625500Y-119697500D01*
X53149500Y-119697500D02*
X53149500Y-124777500D01*
X53149500Y-124142500D02*
X51625500Y-124142500D01*
X51625500Y-119697500D02*
X53149500Y-119697500D01*
X53149500Y-124015500D02*
X51625500Y-124015500D01*
X51625500Y-124269500D02*
X53149500Y-124269500D01*
%TO.C,D12*%
X86550500Y-124523500D02*
X88074500Y-124523500D01*
X88074500Y-124777500D02*
X86550500Y-124777500D01*
X86550500Y-124269500D02*
X88074500Y-124269500D01*
X88074500Y-124650500D02*
X86550500Y-124650500D01*
X88074500Y-124142500D02*
X86550500Y-124142500D01*
X88074500Y-119697500D02*
X88074500Y-124777500D01*
X88074500Y-124015500D02*
X86550500Y-124015500D01*
X86550500Y-124777500D02*
X86550500Y-119697500D01*
X88074500Y-124396500D02*
X86550500Y-124396500D01*
X88074500Y-119697500D02*
X88074500Y-120205500D01*
X86550500Y-119697500D02*
X88074500Y-119697500D01*
%TO.C,D7*%
X53149500Y-105600500D02*
X51625500Y-105600500D01*
X51625500Y-105473500D02*
X53149500Y-105473500D01*
X51625500Y-100647500D02*
X53149500Y-100647500D01*
X53149500Y-105092500D02*
X51625500Y-105092500D01*
X53149500Y-104965500D02*
X51625500Y-104965500D01*
X51625500Y-105727500D02*
X51625500Y-100647500D01*
X53149500Y-105346500D02*
X51625500Y-105346500D01*
X53149500Y-100647500D02*
X53149500Y-105727500D01*
X53149500Y-105727500D02*
X51625500Y-105727500D01*
X53149500Y-100647500D02*
X53149500Y-101155500D01*
X51625500Y-105219500D02*
X53149500Y-105219500D01*
%TO.C,D20*%
X99565000Y-127031750D02*
X99565000Y-128555750D01*
X94485000Y-128555750D02*
X94485000Y-127031750D01*
X95120000Y-128555750D02*
X95120000Y-127031750D01*
X94485000Y-127031750D02*
X99565000Y-127031750D01*
X99565000Y-128555750D02*
X94485000Y-128555750D01*
X99565000Y-128555750D02*
X99057000Y-128555750D01*
X94612000Y-128555750D02*
X94612000Y-127031750D01*
X94739000Y-127031750D02*
X94739000Y-128555750D01*
X94993000Y-127031750D02*
X94993000Y-128555750D01*
X95247000Y-128555750D02*
X95247000Y-127031750D01*
X94866000Y-128555750D02*
X94866000Y-127031750D01*
%TO.C,D9*%
X88074500Y-67500500D02*
X86550500Y-67500500D01*
X86550500Y-67373500D02*
X88074500Y-67373500D01*
X86550500Y-67627500D02*
X86550500Y-62547500D01*
X88074500Y-66865500D02*
X86550500Y-66865500D01*
X88074500Y-66992500D02*
X86550500Y-66992500D01*
X88074500Y-67246500D02*
X86550500Y-67246500D01*
X88074500Y-62547500D02*
X88074500Y-67627500D01*
X88074500Y-62547500D02*
X88074500Y-63055500D01*
X86550500Y-62547500D02*
X88074500Y-62547500D01*
X86550500Y-67119500D02*
X88074500Y-67119500D01*
X88074500Y-67627500D02*
X86550500Y-67627500D01*
%TO.C,D10*%
X86550500Y-86423500D02*
X88074500Y-86423500D01*
X88074500Y-86042500D02*
X86550500Y-86042500D01*
X88074500Y-86296500D02*
X86550500Y-86296500D01*
X88074500Y-81597500D02*
X88074500Y-86677500D01*
X88074500Y-86677500D02*
X86550500Y-86677500D01*
X86550500Y-86169500D02*
X88074500Y-86169500D01*
X88074500Y-86550500D02*
X86550500Y-86550500D01*
X86550500Y-86677500D02*
X86550500Y-81597500D01*
X86550500Y-81597500D02*
X88074500Y-81597500D01*
X88074500Y-85915500D02*
X86550500Y-85915500D01*
X88074500Y-81597500D02*
X88074500Y-82105500D01*
%TO.C,D3*%
X48450500Y-100647500D02*
X49974500Y-100647500D01*
X48450500Y-105219500D02*
X49974500Y-105219500D01*
X48450500Y-105473500D02*
X49974500Y-105473500D01*
X49974500Y-105727500D02*
X48450500Y-105727500D01*
X49974500Y-105092500D02*
X48450500Y-105092500D01*
X49974500Y-104965500D02*
X48450500Y-104965500D01*
X49974500Y-105346500D02*
X48450500Y-105346500D01*
X49974500Y-105600500D02*
X48450500Y-105600500D01*
X49974500Y-100647500D02*
X49974500Y-105727500D01*
X49974500Y-100647500D02*
X49974500Y-101155500D01*
X48450500Y-105727500D02*
X48450500Y-100647500D01*
%TO.C,D16*%
X89725500Y-124269500D02*
X91249500Y-124269500D01*
X91249500Y-124777500D02*
X89725500Y-124777500D01*
X89725500Y-124523500D02*
X91249500Y-124523500D01*
X91249500Y-124396500D02*
X89725500Y-124396500D01*
X89725500Y-124777500D02*
X89725500Y-119697500D01*
X89725500Y-119697500D02*
X91249500Y-119697500D01*
X91249500Y-119697500D02*
X91249500Y-120205500D01*
X91249500Y-124142500D02*
X89725500Y-124142500D01*
X91249500Y-124015500D02*
X89725500Y-124015500D01*
X91249500Y-124650500D02*
X89725500Y-124650500D01*
X91249500Y-119697500D02*
X91249500Y-124777500D01*
%TO.C,D6*%
X49974500Y-86677500D02*
X48450500Y-86677500D01*
X49974500Y-81597500D02*
X49974500Y-82105500D01*
X48450500Y-86677500D02*
X48450500Y-81597500D01*
X49974500Y-85915500D02*
X48450500Y-85915500D01*
X48450500Y-86423500D02*
X49974500Y-86423500D01*
X48450500Y-86169500D02*
X49974500Y-86169500D01*
X49974500Y-86550500D02*
X48450500Y-86550500D01*
X49974500Y-81597500D02*
X49974500Y-86677500D01*
X49974500Y-86042500D02*
X48450500Y-86042500D01*
X48450500Y-81597500D02*
X49974500Y-81597500D01*
X49974500Y-86296500D02*
X48450500Y-86296500D01*
%TO.C,D14*%
X91249500Y-86677500D02*
X89725500Y-86677500D01*
X89725500Y-86169500D02*
X91249500Y-86169500D01*
X91249500Y-85915500D02*
X89725500Y-85915500D01*
X89725500Y-86677500D02*
X89725500Y-81597500D01*
X91249500Y-86296500D02*
X89725500Y-86296500D01*
X91249500Y-81597500D02*
X91249500Y-86677500D01*
X89725500Y-86423500D02*
X91249500Y-86423500D01*
X91249500Y-81597500D02*
X91249500Y-82105500D01*
X91249500Y-86550500D02*
X89725500Y-86550500D01*
X91249500Y-86042500D02*
X89725500Y-86042500D01*
X89725500Y-81597500D02*
X91249500Y-81597500D01*
%TO.C,D18*%
X115570000Y-92043250D02*
X115570000Y-90519250D01*
X114935000Y-90519250D02*
X120015000Y-90519250D01*
X120015000Y-92043250D02*
X119507000Y-92043250D01*
X115316000Y-92043250D02*
X115316000Y-90519250D01*
X115443000Y-90519250D02*
X115443000Y-92043250D01*
X115062000Y-92043250D02*
X115062000Y-90519250D01*
X115189000Y-90519250D02*
X115189000Y-92043250D01*
X114935000Y-92043250D02*
X114935000Y-90519250D01*
X120015000Y-90519250D02*
X120015000Y-92043250D01*
X120015000Y-92043250D02*
X114935000Y-92043250D01*
X115697000Y-92043250D02*
X115697000Y-90519250D01*
%TO.C,D19*%
X120015000Y-111093250D02*
X119507000Y-111093250D01*
X115062000Y-111093250D02*
X115062000Y-109569250D01*
X115570000Y-111093250D02*
X115570000Y-109569250D01*
X120015000Y-109569250D02*
X120015000Y-111093250D01*
X115189000Y-109569250D02*
X115189000Y-111093250D01*
X120015000Y-111093250D02*
X114935000Y-111093250D01*
X115443000Y-109569250D02*
X115443000Y-111093250D01*
X115316000Y-111093250D02*
X115316000Y-109569250D01*
X115697000Y-111093250D02*
X115697000Y-109569250D01*
X114935000Y-109569250D02*
X120015000Y-109569250D01*
X114935000Y-111093250D02*
X114935000Y-109569250D01*
%TO.C,D17*%
X114935000Y-71469250D02*
X120015000Y-71469250D01*
X115697000Y-72993250D02*
X115697000Y-71469250D01*
X115570000Y-72993250D02*
X115570000Y-71469250D01*
X120015000Y-72993250D02*
X119507000Y-72993250D01*
X115189000Y-71469250D02*
X115189000Y-72993250D01*
X120015000Y-72993250D02*
X114935000Y-72993250D01*
X120015000Y-71469250D02*
X120015000Y-72993250D01*
X115316000Y-72993250D02*
X115316000Y-71469250D01*
X115443000Y-71469250D02*
X115443000Y-72993250D01*
X114935000Y-72993250D02*
X114935000Y-71469250D01*
X115062000Y-72993250D02*
X115062000Y-71469250D01*
%TO.C,D11*%
X88074500Y-104965500D02*
X86550500Y-104965500D01*
X86550500Y-105219500D02*
X88074500Y-105219500D01*
X86550500Y-100647500D02*
X88074500Y-100647500D01*
X86550500Y-105473500D02*
X88074500Y-105473500D01*
X88074500Y-105092500D02*
X86550500Y-105092500D01*
X86550500Y-105727500D02*
X86550500Y-100647500D01*
X88074500Y-100647500D02*
X88074500Y-105727500D01*
X88074500Y-105727500D02*
X86550500Y-105727500D01*
X88074500Y-105346500D02*
X86550500Y-105346500D01*
X88074500Y-100647500D02*
X88074500Y-101155500D01*
X88074500Y-105600500D02*
X86550500Y-105600500D01*
%TO.C,D15*%
X91249500Y-100647500D02*
X91249500Y-101155500D01*
X91249500Y-105092500D02*
X89725500Y-105092500D01*
X91249500Y-105727500D02*
X89725500Y-105727500D01*
X89725500Y-105219500D02*
X91249500Y-105219500D01*
X91249500Y-104965500D02*
X89725500Y-104965500D01*
X89725500Y-105473500D02*
X91249500Y-105473500D01*
X91249500Y-100647500D02*
X91249500Y-105727500D01*
X89725500Y-105727500D02*
X89725500Y-100647500D01*
X91249500Y-105600500D02*
X89725500Y-105600500D01*
X91249500Y-105346500D02*
X89725500Y-105346500D01*
X89725500Y-100647500D02*
X91249500Y-100647500D01*
%TO.C,D1*%
X38922500Y-69881750D02*
X39430500Y-69881750D01*
X43494500Y-71405750D02*
X43494500Y-69881750D01*
X38922500Y-71405750D02*
X38922500Y-69881750D01*
X38922500Y-69881750D02*
X44002500Y-69881750D01*
X43621500Y-69881750D02*
X43621500Y-71405750D01*
X43367500Y-69881750D02*
X43367500Y-71405750D01*
X44002500Y-69881750D02*
X44002500Y-71405750D01*
X43875500Y-69881750D02*
X43875500Y-71405750D01*
X44002500Y-71405750D02*
X38922500Y-71405750D01*
X43748500Y-71405750D02*
X43748500Y-69881750D01*
X43240500Y-69881750D02*
X43240500Y-71405750D01*
%TO.C,D2*%
X38735000Y-92043250D02*
X38735000Y-90519250D01*
X38735000Y-90519250D02*
X43815000Y-90519250D01*
X38735000Y-90519250D02*
X39243000Y-90519250D01*
X43815000Y-92043250D02*
X38735000Y-92043250D01*
X43561000Y-92043250D02*
X43561000Y-90519250D01*
X43053000Y-90519250D02*
X43053000Y-92043250D01*
X43307000Y-92043250D02*
X43307000Y-90519250D01*
X43688000Y-90519250D02*
X43688000Y-92043250D01*
X43180000Y-90519250D02*
X43180000Y-92043250D01*
X43815000Y-90519250D02*
X43815000Y-92043250D01*
X43434000Y-90519250D02*
X43434000Y-92043250D01*
%TO.C,D13*%
X91249500Y-66992500D02*
X89725500Y-66992500D01*
X89725500Y-67627500D02*
X89725500Y-62547500D01*
X91249500Y-67500500D02*
X89725500Y-67500500D01*
X91249500Y-66865500D02*
X89725500Y-66865500D01*
X89725500Y-67373500D02*
X91249500Y-67373500D01*
X91249500Y-62547500D02*
X91249500Y-67627500D01*
X89725500Y-62547500D02*
X91249500Y-62547500D01*
X91249500Y-62547500D02*
X91249500Y-63055500D01*
X91249500Y-67246500D02*
X89725500Y-67246500D01*
X89725500Y-67119500D02*
X91249500Y-67119500D01*
X91249500Y-67627500D02*
X89725500Y-67627500D01*
%TD*%
D14*
%TO.C,U1*%
X52705000Y-59055000D03*
D15*
X52705000Y-61595000D03*
X52705000Y-64135000D03*
X52705000Y-66675000D03*
X52705000Y-69215000D03*
X52705000Y-71755000D03*
X52705000Y-74295000D03*
X52705000Y-76835000D03*
X52705000Y-79375000D03*
X52705000Y-81915000D03*
X52705000Y-84455000D03*
X52705000Y-86995000D03*
X67945000Y-86995000D03*
X67945000Y-84455000D03*
X67945000Y-81915000D03*
X67945000Y-79375000D03*
X67945000Y-76835000D03*
X67945000Y-74295000D03*
X67945000Y-71755000D03*
X67945000Y-69215000D03*
X67945000Y-66675000D03*
X67945000Y-64135000D03*
X67945000Y-61595000D03*
X67945000Y-59055000D03*
%TD*%
D16*
%TO.C,D4*%
X49212500Y-126137500D03*
D17*
X49212500Y-118337500D03*
%TD*%
D16*
%TO.C,D5*%
X49212500Y-68987500D03*
D17*
X49212500Y-61187500D03*
%TD*%
D16*
%TO.C,D8*%
X52387500Y-126137500D03*
D17*
X52387500Y-118337500D03*
%TD*%
D16*
%TO.C,D12*%
X87312500Y-126137500D03*
D17*
X87312500Y-118337500D03*
%TD*%
D16*
%TO.C,D7*%
X52387500Y-107087500D03*
D17*
X52387500Y-99287500D03*
%TD*%
D16*
%TO.C,D20*%
X93125000Y-127793750D03*
D17*
X100925000Y-127793750D03*
%TD*%
D16*
%TO.C,D9*%
X87312500Y-68987500D03*
D17*
X87312500Y-61187500D03*
%TD*%
D16*
%TO.C,D10*%
X87312500Y-88037500D03*
D17*
X87312500Y-80237500D03*
%TD*%
D16*
%TO.C,D3*%
X49212500Y-107087500D03*
D17*
X49212500Y-99287500D03*
%TD*%
D16*
%TO.C,D16*%
X90487500Y-126137500D03*
D17*
X90487500Y-118337500D03*
%TD*%
D16*
%TO.C,D6*%
X49212500Y-88037500D03*
D17*
X49212500Y-80237500D03*
%TD*%
D16*
%TO.C,D14*%
X90487500Y-88037500D03*
D17*
X90487500Y-80237500D03*
%TD*%
D16*
%TO.C,D18*%
X113575000Y-91281250D03*
D17*
X121375000Y-91281250D03*
%TD*%
D16*
%TO.C,D19*%
X113575000Y-110331250D03*
D17*
X121375000Y-110331250D03*
%TD*%
D16*
%TO.C,D17*%
X113575000Y-72231250D03*
D17*
X121375000Y-72231250D03*
%TD*%
D16*
%TO.C,D11*%
X87312500Y-107087500D03*
D17*
X87312500Y-99287500D03*
%TD*%
D16*
%TO.C,D15*%
X90487500Y-107087500D03*
D17*
X90487500Y-99287500D03*
%TD*%
D16*
%TO.C,D1*%
X45362500Y-70643750D03*
D17*
X37562500Y-70643750D03*
%TD*%
D16*
%TO.C,D2*%
X45175000Y-91281250D03*
D17*
X37375000Y-91281250D03*
%TD*%
D16*
%TO.C,D13*%
X90487500Y-68987500D03*
D17*
X90487500Y-61187500D03*
%TD*%
M02*
